<?xml version="1.0" standalone="no"?>
<!DOCTYPE svg PUBLIC "-//W3C//DTD SVG 20010904//EN"
 "http://www.w3.org/TR/2001/REC-SVG-20010904/DTD/svg10.dtd">
<svg version="1.0" xmlns="http://www.w3.org/2000/svg"
 width="1004.000000pt" height="565.000000pt" viewBox="0 0 1004.000000 565.000000"
 preserveAspectRatio="xMidYMid meet">
<metadata>
Created by potrace 1.16, written by Peter Selinger 2001-2019
</metadata>
<g transform="translate(0.000000,565.000000) scale(0.100000,-0.100000)"
fill="#000000" stroke="none">
<path d="M0 3599 l0 -2051 31 6 c17 3 104 6 192 6 139 0 159 2 142 14 -11 7
-38 12 -60 11 -50 -2 -68 4 -61 21 8 20 -4 17 -20 -3 -12 -17 -13 -16 -14 4 0
30 10 54 21 47 5 -3 7 -10 4 -15 -4 -5 -1 -9 4 -9 6 0 11 14 11 30 0 17 -4 30
-10 30 -5 0 -9 3 -9 8 1 4 1 24 0 46 -1 29 -4 37 -16 32 -20 -7 -21 -13 21
346 39 348 71 586 73 548 1 -20 3 -22 11 -10 9 13 11 13 20 0 7 -11 10 -7 10
20 3 116 58 250 103 250 13 0 17 5 13 18 -4 10 1 22 12 28 18 11 90 10 131 -2
17 -5 23 -4 19 6 -2 7 6 24 18 37 22 23 54 28 104 14 38 -11 7 -24 -52 -22
-26 1 -48 -2 -48 -6 0 -13 -78 -776 -104 -1018 -14 -126 -28 -257 -31 -290
-11 -104 -11 -105 -50 -105 -24 0 -37 -6 -45 -20 -11 -20 3 -30 15 -10 3 6 11
10 16 10 6 0 7 -5 3 -12 -5 -8 45 -9 202 -4 115 4 677 7 1249 8 1023 1 1193 4
1130 19 -30 7 -29 7 8 8 20 0 37 -2 37 -6 0 -5 223 -8 495 -9 l495 0 1 25 c1
14 2 179 4 366 3 317 19 691 32 742 4 18 9 21 23 13 26 -14 80 -13 80 2 0 14
14 1 16 -15 0 -7 2 -29 2 -50 l2 -39 48 6 c26 3 65 2 87 -3 34 -7 27 -9 -47
-10 -84 -1 -88 -2 -88 -23 0 -13 -3 -78 -7 -145 l-5 -123 28 -1 c29 -1 29 -1
4 -8 -24 -7 -25 -10 -28 -101 -2 -67 1 -96 10 -101 10 -6 9 -33 -5 -131 -10
-70 -17 -182 -17 -261 l0 -137 202 2 202 3 9 43 c15 75 16 42 4 -96 l-11 -132
-306 1 c-330 1 -901 -8 -990 -16 -47 -5 -357 -17 -415 -17 -11 0 -42 -4 -70
-9 -43 -8 -83 -13 -132 -18 -6 0 -13 -11 -15 -23 -2 -13 -9 -24 -15 -24 -7 -1
-14 -2 -15 -4 -2 -1 -13 -3 -25 -4 -82 -9 24 -40 222 -65 293 -38 304 -39 935
-72 347 -18 1464 -14 1675 6 28 2 109 7 180 10 255 12 561 36 704 56 149 21
302 59 302 75 0 12 -84 31 -221 48 -117 15 -197 20 -490 31 -91 4 -199 8 -240
10 -41 3 -286 7 -545 10 -258 4 -476 8 -482 10 -9 3 -11 27 -8 86 3 45 8 85
11 88 3 3 69 6 147 7 78 1 249 2 380 4 169 1 237 5 237 14 4 134 -3 1212 -8
1217 -4 3 -131 25 -282 48 -309 47 -311 48 -290 61 12 8 10 10 -10 11 -14 1
-30 1 -37 0 -6 -1 -15 4 -19 10 -5 9 -2 10 10 6 14 -6 16 -3 11 16 -6 22 -6
22 15 -2 18 -21 23 -22 31 -10 6 10 9 10 9 2 0 -7 12 -14 28 -14 17 -1 20 -3
9 -6 -9 -2 -15 -9 -11 -14 3 -5 10 -7 15 -3 5 3 16 1 23 -5 7 -6 28 -10 47 -9
19 0 45 -4 57 -11 12 -6 22 -8 22 -3 0 6 9 12 20 15 13 3 20 0 20 -9 0 -12 18
-19 42 -15 4 0 18 -3 31 -8 16 -6 28 -6 35 1 6 6 12 6 16 -1 4 -5 13 -8 21 -5
7 3 24 0 37 -7 23 -12 23 -12 4 10 -21 23 -16 27 16 10 14 -8 23 -8 31 0 15
15 27 14 21 -2 -3 -8 1 -19 9 -26 16 -13 47 -5 47 12 0 6 7 2 15 -9 13 -18 14
-15 15 29 0 39 -5 52 -26 70 -50 43 -50 161 0 204 21 17 26 31 26 66 0 40 -3
46 -30 57 -55 23 -70 63 -70 186 0 115 -8 146 -28 121 -7 -8 -14 -29 -16 -46
-2 -18 -9 -38 -15 -44 -13 -13 -15 -31 -2 -23 5 4 11 0 14 -6 2 -7 8 10 12 37
14 95 24 82 25 -32 0 -62 -2 -113 -4 -113 -2 0 -24 11 -47 25 -24 14 -55 25
-69 25 l-25 0 -2 203 c-1 111 -3 240 -3 287 -1 47 -1 123 -1 169 1 83 1 83 25
77 16 -4 30 0 40 10 9 8 16 11 16 6 0 -5 13 -15 30 -22 33 -14 38 -30 43 -145
2 -38 3 -7 3 70 l-1 140 -79 27 -78 28 6 -24 c3 -14 2 -27 -2 -30 -8 -5 -14 5
-40 58 -3 4 5 5 17 1 17 -5 20 -3 14 12 -3 10 -10 23 -15 30 -6 7 -7 17 -3 23
4 6 3 10 -2 9 -20 -4 -72 14 -66 24 4 6 1 7 -6 2 -19 -11 -60 14 -54 34 3 12
1 11 -11 -3 -15 -18 -21 -15 -17 8 1 4 -11 5 -26 2 -15 -4 -23 -3 -17 1 13 9
15 43 2 43 -4 0 -8 10 -8 23 0 17 2 19 10 7 15 -23 22 -5 9 24 -15 32 -29 34
-30 4 -4 -62 -8 -90 -12 -94 -9 -9 -35 8 -40 27 -3 10 -10 19 -17 19 -6 0 -8
-4 -5 -10 3 -5 0 -10 -7 -10 -23 0 -111 30 -135 46 -13 8 -28 12 -33 9 -16
-10 -109 37 -103 51 3 8 1 14 -5 14 -6 0 -12 -4 -14 -10 -4 -12 -168 38 -168
52 0 5 -5 6 -12 2 -8 -5 -9 -2 -5 10 4 10 7 25 7 34 0 14 2 14 9 3 5 -7 14
-12 20 -10 9 3 6 11 -6 25 -10 12 -24 19 -32 16 -8 -3 -11 0 -7 7 4 7 0 11
-11 11 -12 0 -19 8 -20 20 -1 14 4 20 20 20 20 1 21 2 5 14 -14 10 -15 15 -5
25 9 10 8 11 -7 5 -16 -6 -18 -4 -13 9 7 19 -17 24 -28 7 -4 -6 -11 -8 -16 -5
-17 11 -9 -8 13 -33 l23 -25 -28 18 c-26 17 -27 17 -27 -3 0 -12 -10 -28 -22
-36 -17 -12 -19 -18 -9 -30 9 -11 9 -15 -1 -19 -7 -3 -3 -6 9 -6 12 -1 25 4
28 9 3 6 14 10 23 10 15 -1 15 -2 -1 -14 -20 -15 -16 -20 26 -30 15 -3 27 -10
27 -15 0 -11 -70 6 -85 20 -5 5 -17 9 -27 9 -10 0 -24 11 -30 25 -6 14 -15 25
-21 25 -5 0 -7 6 -4 14 6 16 -39 40 -48 26 -11 -18 -21 -10 -23 20 -1 17 2 30
8 30 5 0 10 -9 10 -20 0 -17 3 -19 19 -11 10 6 20 9 22 8 2 -1 -1 3 -8 9 -7 6
-13 21 -13 34 0 17 -4 21 -20 17 -17 -4 -20 0 -20 24 0 16 -3 29 -8 29 -4 0
-9 -41 -10 -92 -2 -51 -4 -94 -6 -95 -4 -4 -299 97 -306 104 -3 3 5 4 17 1 15
-4 23 0 26 12 3 13 -1 16 -19 14 -13 -1 -24 2 -24 7 0 5 -8 9 -17 9 -10 1 -31
12 -48 25 -25 21 -27 27 -15 35 13 8 13 9 0 14 -45 14 -45 14 -27 15 12 1 17
10 18 31 2 42 3 47 12 56 12 12 8 24 -7 24 -8 0 -16 -8 -19 -17 -3 -14 -6 -12
-15 9 -10 24 -15 26 -35 19 -16 -6 -28 -6 -36 2 -8 8 -11 8 -11 0 0 -6 5 -13
10 -15 6 -2 12 -13 13 -26 0 -12 5 -22 9 -22 4 0 5 -7 2 -15 -9 -23 -23 -18
-30 10 -3 14 -11 25 -16 25 -6 0 -8 -7 -5 -15 7 -17 -9 -30 -18 -15 -4 7 -12
7 -25 0 -27 -15 -42 10 -38 68 2 38 6 48 17 44 12 -4 11 -1 -2 18 -12 18 -15
37 -11 84 3 34 10 67 16 74 6 7 6 12 1 12 -8 0 -6 119 3 129 2 2 33 -9 69 -24
50 -22 64 -32 60 -44 -5 -12 -3 -13 6 -4 6 6 9 18 6 25 -6 16 -120 61 -143 56
-17 -3 -16 0 -28 -193 -8 -125 -20 -270 -25 -297 -2 -15 -31 -8 -51 12 -22 22
-46 27 -34 8 5 -8 2 -9 -12 -4 -23 9 -113 39 -173 57 -26 8 -46 20 -49 31 -5
19 -32 25 -32 7 0 -6 -15 -1 -34 10 -18 12 -40 21 -48 21 -12 0 -15 10 -14 40
0 25 6 40 14 40 11 0 17 -19 13 -49 -2 -11 0 -11 12 0 10 10 12 19 6 32 -7 13
-6 17 6 17 9 0 13 5 10 10 -5 7 -11 8 -18 1 -8 -6 -19 -5 -31 5 -22 16 -38 10
-29 -12 4 -10 -5 -25 -22 -40 -34 -29 -45 -30 -38 -4 6 23 -10 26 -53 10 -21
-8 -31 -7 -43 4 -15 14 -21 16 -38 16 -4 0 -2 5 5 12 7 7 12 20 12 30 0 10 4
18 9 18 13 0 20 36 10 51 -6 10 -9 7 -10 -11 0 -14 -3 -19 -6 -12 -9 22 -25
13 -18 -10 5 -17 4 -19 -3 -9 -8 11 -11 10 -15 -5 -4 -18 -5 -18 -6 0 -1 12
-6 16 -17 12 -13 -5 -14 0 -9 27 5 25 4 29 -5 17 -8 -11 -10 10 -6 84 3 60 9
102 16 106 8 5 8 10 2 14 -5 3 -8 29 -7 57 2 32 -1 47 -7 41 -10 -10 -14 -41
-17 -123 -1 -31 -8 -55 -21 -70 -14 -17 -18 -19 -14 -6 9 26 -24 11 -64 -30
-31 -31 -61 -46 -47 -23 5 9 -7 14 -27 11 -4 0 -10 9 -14 22 -3 12 -13 30 -22
40 -9 10 -10 17 -4 17 6 0 14 -5 17 -10 4 -6 12 -4 21 5 9 8 22 15 30 15 8 0
14 7 14 15 0 12 -4 13 -19 6 -10 -6 -21 -8 -24 -5 -10 11 -48 -17 -57 -42 -8
-19 -15 -24 -30 -19 -14 4 -20 2 -20 -8 0 -17 24 -29 44 -21 16 6 27 -18 17
-35 -12 -19 -74 37 -68 61 4 12 0 18 -11 18 -13 0 -11 5 8 20 15 11 33 17 44
14 15 -5 18 -3 13 10 -5 11 -1 16 13 16 11 0 20 6 20 14 0 19 -17 30 -25 17
-3 -6 -13 -7 -21 -4 -13 5 -15 1 -9 -17 6 -18 4 -22 -8 -17 -8 3 -20 0 -27 -6
-10 -9 -11 -7 -5 13 17 61 29 75 68 80 21 3 38 10 38 15 0 12 39 7 56 -6 7 -6
13 -6 17 -1 8 13 56 12 56 -1 0 -14 13 0 16 17 1 10 -11 13 -50 11 -28 -2 -41
-1 -28 2 12 2 22 9 22 16 0 8 3 8 12 -1 18 -18 28 -15 28 8 0 17 -3 18 -26 10
-35 -14 -36 -13 -29 10 5 15 2 20 -13 20 -11 0 -22 6 -24 12 -4 10 -10 10 -33
0 -15 -7 -25 -15 -22 -18 3 -3 14 -1 24 5 15 7 23 6 34 -8 30 -35 31 -41 5
-39 -15 1 -29 10 -32 20 -4 14 -9 16 -25 8 -14 -8 -19 -7 -20 2 0 7 -4 3 -9
-9 -5 -13 -14 -23 -20 -23 -6 0 -8 -4 -5 -10 3 -5 11 -10 16 -10 6 0 7 5 3 11
-4 7 -1 10 7 7 8 -3 15 -12 17 -21 3 -13 -2 -16 -19 -14 -12 2 -32 -6 -47 -20
-26 -24 -48 -31 -36 -12 4 7 1 10 -7 7 -8 -3 -14 -11 -14 -18 0 -7 -6 -15 -14
-18 -8 -3 -11 0 -7 7 4 6 3 11 -3 11 -5 0 -12 -8 -14 -17 -3 -13 -5 -12 -6 5
-1 16 6 26 19 29 19 5 23 12 18 31 -1 4 -8 6 -15 4 -7 -2 -13 1 -12 5 1 4 1
27 0 50 l-1 42 -231 1 c-181 0 -229 -3 -223 -13 6 -9 5 -9 -7 0 -11 9 -118 12
-420 12 l-404 0 140 -45 c77 -25 145 -52 151 -60 7 -8 14 -11 15 -6 4 9 388
-115 426 -137 39 -23 -16 -8 -197 51 -104 34 -191 60 -194 57 -2 -2 -7 -44
-11 -94 -4 -53 -3 -85 3 -77 6 10 38 2 143 -34 74 -25 139 -47 144 -48 45 -11
65 -20 65 -28 0 -5 5 -6 10 -3 6 4 10 -6 10 -22 l0 -28 -13 25 c-10 18 -20 24
-38 22 -13 -1 -29 5 -36 14 -11 15 -15 15 -30 3 -15 -12 -16 -12 -10 4 9 24
-6 21 -42 -9 -17 -14 -38 -24 -46 -21 -7 3 -16 1 -18 -6 -3 -9 -11 -9 -37 0
-42 16 -64 3 -25 -13 l30 -13 -30 -1 c-30 0 -74 -20 -47 -20 7 0 10 -5 6 -11
-4 -8 -9 -7 -15 2 -6 9 -3 19 9 27 15 12 13 13 -15 7 l-32 -6 4 68 c4 59 3 55
-11 -31 -8 -54 -13 -100 -12 -102 2 -2 58 -19 123 -39 66 -19 158 -47 204 -61
45 -14 84 -24 86 -22 1 2 10 76 20 165 20 195 33 251 34 148 0 -38 -4 -104 -9
-145 -6 -41 -19 -160 -30 -265 -11 -104 -36 -329 -55 -500 -19 -170 -35 -311
-35 -312 0 -2 -5 -3 -11 -3 -12 0 -12 0 17 258 8 79 13 150 10 158 -3 8 -15
14 -26 14 -11 0 -101 20 -200 45 -99 25 -183 45 -187 45 -11 0 -55 -383 -46
-405 6 -16 2 -17 -36 -12 -24 3 -45 8 -48 11 -3 3 6 101 20 218 15 116 25 212
24 213 -1 0 -105 26 -231 57 -125 31 -230 58 -232 60 -4 4 34 307 40 323 7 16
5 -92 -2 -182 -4 -46 -7 -83 -7 -83 0 0 93 -24 206 -54 l206 -53 7 81 c3 44 9
120 12 168 4 48 11 85 15 82 8 -5 7 -60 -7 -249 -10 -140 6 -74 30 121 15 118
20 191 14 195 -6 4 -109 35 -229 70 -170 49 -219 67 -219 79 0 9 2 19 5 22 6
6 423 -113 444 -126 6 -4 11 -5 11 -3 0 11 51 365 55 384 5 20 -8 26 -163 77
l-167 56 -508 0 -507 0 0 -2051z m1214 1814 c50 -15 92 -27 94 -29 2 -1 0 -25
-4 -53 -6 -45 -9 -50 -28 -47 -37 8 -102 35 -86 36 9 1 6 5 -8 10 -12 5 -28 7
-36 4 -9 -3 -17 6 -24 25 -12 34 -8 39 15 16 8 -9 18 -13 22 -10 3 4 -5 16
-19 27 -14 11 -24 24 -23 29 2 5 -5 5 -14 2 -11 -4 -14 -3 -9 5 10 16 17 16
120 -15z m1442 -400 c-4 -43 -19 -233 -35 -423 -16 -190 -35 -415 -42 -500
-12 -157 -27 -236 -28 -152 -1 42 15 253 23 319 4 29 2 32 -27 38 -93 20 -285
67 -303 74 -16 7 -20 16 -17 35 3 14 8 26 12 26 3 0 74 -18 156 -40 83 -22
153 -40 156 -40 3 0 6 71 8 157 1 86 4 159 6 162 3 2 5 -69 5 -159 0 -90 3
-161 6 -157 7 6 37 348 31 353 -2 2 -79 25 -172 51 -156 44 -191 62 -169 83 8
7 41 -1 256 -69 l87 -27 5 25 c3 15 11 92 17 174 7 81 16 147 22 147 5 0 7
-31 3 -77z m518 -15 c61 -22 85 -35 82 -45 -3 -7 0 -13 6 -13 6 0 4 -8 -5 -18
-13 -14 -14 -21 -5 -30 18 -18 27 -15 21 7 -3 11 2 21 12 25 9 3 13 2 10 -4
-3 -5 3 -18 15 -30 20 -20 18 -24 -12 -21 -9 1 -18 -6 -21 -16 -4 -16 -6 -15
-12 5 -4 12 -14 22 -22 22 -8 0 -11 5 -8 10 8 14 2 13 -31 -5 -27 -14 -29 -13
-37 7 -4 13 -3 26 5 36 11 13 10 15 -5 9 -11 -4 -16 -3 -12 4 4 5 1 16 -5 24
-6 8 -9 19 -5 25 3 5 2 10 -4 10 -5 0 -15 -8 -21 -17 -9 -17 -11 -17 -21 0 -5
9 -14 15 -20 12 -5 -4 -9 0 -9 9 0 8 -6 17 -12 19 -7 3 -3 6 8 6 12 1 61 -13
108 -31z m225 -80 c18 -6 22 -14 18 -31 -5 -18 -4 -20 6 -7 19 24 37 22 37 -3
0 -20 14 -27 129 -65 71 -24 135 -50 142 -58 7 -8 15 -11 18 -6 3 5 61 -9 128
-31 67 -23 120 -43 118 -45 -3 -3 -174 47 -220 64 -6 3 -11 -24 -12 -65 l-2
-69 44 -12 c53 -15 56 -24 13 -39 -36 -13 -34 -13 -47 19 -8 21 -10 14 -10
-35 1 -52 2 -56 11 -32 5 15 14 24 20 21 7 -4 6 -9 -2 -14 -7 -4 7 -12 37 -19
62 -15 92 -34 44 -28 -32 4 -33 3 -15 -11 18 -13 17 -14 -9 -10 -22 4 -25 3
-16 -8 9 -11 5 -11 -21 -4 -28 8 -30 7 -19 -6 11 -13 9 -14 -17 -8 -19 4 -26
3 -19 -3 6 -6 48 -20 95 -33 47 -13 103 -32 125 -41 40 -18 40 -18 47 4 3 12
7 65 8 117 0 52 5 113 10 135 6 27 7 -10 4 -110 -18 -608 -27 -835 -34 -865
-4 -19 -5 41 -2 137 l5 172 -39 6 c-21 4 -82 18 -134 31 -52 12 -96 22 -97 20
-2 -1 -5 -45 -7 -97 l-5 -94 9 84 c5 46 11 86 14 88 3 3 50 -5 104 -18 l99
-23 -5 -160 c-2 -89 -5 -162 -6 -163 0 -1 -53 9 -116 23 -63 13 -125 24 -138
24 l-23 0 7 178 7 179 -49 12 c-207 50 -214 52 -214 82 l0 27 124 -33 124 -32
7 154 c4 85 6 155 4 157 -2 2 -56 19 -119 38 -109 32 -115 36 -118 62 -3 26
-2 28 27 21 17 -3 75 -21 131 -39 l100 -32 4 30 c3 17 8 92 11 166 l6 135
-118 40 c-150 51 -143 49 -143 31 0 -9 -4 -16 -10 -16 -13 0 -13 17 0 25 11 7
2 35 -11 35 -5 0 -9 -6 -9 -14 0 -8 -9 -12 -24 -11 -18 2 -23 -1 -19 -11 3 -8
1 -14 -5 -14 -13 0 -23 53 -11 61 5 3 7 14 3 23 -6 16 -8 17 -16 2 -10 -18
-38 -22 -38 -5 0 5 4 8 9 4 5 -3 12 -1 16 4 3 5 -3 15 -12 21 -14 8 -12 9 12
4 17 -4 41 -11 54 -16z m186 -254 c60 -20 112 -38 114 -40 2 -2 0 -33 -4 -69
-7 -66 -7 -66 -28 -48 -11 10 -17 13 -14 6 19 -32 -24 -57 -52 -30 -11 10 -12
9 -6 -2 12 -21 -45 -4 -68 20 -20 21 -32 26 -21 7 5 -8 0 -9 -17 -4 -13 4 -31
8 -39 8 -12 0 -14 9 -12 36 2 20 4 57 5 82 3 44 12 70 25 70 4 0 56 -16 117
-36z m545 -4 c-8 -5 -6 -9 5 -14 10 -3 24 -1 31 5 10 8 54 -3 181 -46 92 -32
177 -63 188 -68 11 -6 27 -11 35 -12 22 -2 93 -26 106 -36 6 -5 14 -6 17 -2 4
3 17 1 30 -5 12 -6 39 -18 60 -26 21 -9 36 -20 32 -26 -3 -5 -1 -10 4 -10 6 0
11 5 11 10 0 13 47 2 80 -19 25 -16 34 -46 24 -88 -2 -13 -10 -23 -17 -23 -7
0 -13 -9 -14 -19 -1 -13 3 -18 12 -15 7 3 16 0 20 -6 12 -20 -2 -22 -33 -6
-17 9 -37 13 -45 10 -8 -3 -18 -1 -22 5 -3 6 1 14 9 17 9 3 16 11 16 17 0 7
-4 7 -12 -1 -17 -17 -28 -15 -21 6 5 14 3 14 -14 -3 -11 -11 -18 -26 -15 -32
2 -7 -1 -13 -6 -13 -20 0 -18 45 2 68 19 22 19 22 0 22 -11 0 -26 -6 -33 -12
-10 -11 -11 -8 -6 15 5 17 3 27 -4 27 -6 0 -11 -4 -11 -10 0 -5 -10 -11 -22
-11 -17 -1 -19 -2 -5 -6 11 -3 17 -14 16 -31 0 -26 -1 -26 -9 -4 -10 24 -50
31 -50 8 0 -8 -7 -17 -16 -20 -11 -4 -15 -2 -11 6 10 29 -9 51 -46 53 -19 0
-33 -3 -31 -7 3 -5 0 -7 -8 -6 -7 2 -12 -2 -11 -9 1 -6 -5 -10 -15 -8 -9 1
-25 -1 -34 -6 -15 -8 -15 -7 0 24 9 17 22 38 29 45 11 11 13 10 13 -7 0 -11
-8 -25 -17 -30 -17 -10 -17 -10 0 -11 10 0 20 7 23 15 4 8 12 15 18 15 7 0 12
13 12 28 0 25 -3 28 -26 24 -16 -2 -31 3 -39 12 -11 13 -11 16 0 16 11 0 11 2
-1 10 -13 9 -13 11 0 20 8 5 11 10 5 10 -5 0 -17 -5 -25 -10 -13 -9 -13 -11 0
-20 11 -7 11 -10 2 -10 -7 0 -10 -4 -7 -10 3 -5 0 -10 -9 -10 -8 0 -16 -6 -19
-12 -2 -7 -8 -9 -13 -5 -5 5 1 17 13 27 20 15 21 20 8 30 -8 7 -12 16 -9 21 3
5 -5 9 -17 9 -21 0 -21 -1 -5 -19 22 -25 15 -37 -25 -45 -27 -5 -30 -9 -25
-28 4 -13 9 -31 11 -40 2 -10 11 -28 19 -40 20 -28 20 -35 1 -35 -10 0 -13 6
-10 18 3 9 1 20 -5 24 -5 3 -10 1 -10 -4 0 -6 -7 -11 -16 -11 -9 0 -12 -5 -8
-12 5 -7 3 -8 -6 -3 -10 6 -8 13 10 27 17 14 21 22 12 27 -7 4 -10 15 -7 23 3
8 -2 23 -11 32 -14 14 -19 15 -26 4 -8 -10 -9 -10 -5 2 2 8 9 15 15 15 5 0 14
3 18 8 4 4 2 7 -4 7 -7 0 -12 7 -12 15 0 18 -16 20 -23 3 -4 -9 -8 -10 -14 -2
-4 6 -18 16 -31 23 -20 11 -21 14 -7 27 21 22 19 25 -12 18 -25 -7 -27 -6 -14
9 7 10 11 17 8 17 -3 0 -13 3 -23 7 -14 5 -16 2 -11 -17 6 -22 6 -22 -13 -2
-26 27 -30 58 -7 54 23 -4 22 10 -4 26 -13 8 -25 10 -32 4 -7 -5 -22 -13 -35
-17 -20 -6 -22 -3 -20 23 1 21 6 28 16 25 10 -4 11 -8 2 -13z m-466 -833 l-7
-165 -61 15 c-33 7 -67 15 -76 17 -43 8 -69 19 -65 26 2 4 -5 7 -18 6 -20 -1
-22 4 -25 57 -2 44 0 57 11 57 18 0 29 37 13 44 -8 3 -8 5 1 5 6 1 14 -3 17
-8 3 -5 15 -7 26 -4 16 4 18 11 13 32 l-6 26 23 -20 23 -20 -5 22 c-4 16 0 23
15 27 13 3 17 2 10 -5 -13 -13 -5 -51 8 -43 5 3 9 14 9 24 0 27 21 36 35 16
11 -14 13 -15 19 -1 3 8 12 15 21 15 9 0 15 6 14 13 -3 21 1 41 7 35 3 -3 2
-80 -2 -171z m1635 -503 c53 -22 59 -34 8 -15 -23 9 -25 7 -32 -27 -8 -49 -27
-92 -40 -92 -5 0 -27 5 -47 10 -26 8 -44 8 -57 0 -16 -8 -12 6 22 85 l41 94
25 -16 c14 -9 50 -26 80 -39z m-665 -651 c14 -218 28 -380 36 -423 7 -35 6
-47 -6 -56 -8 -6 -14 -15 -14 -19 0 -4 7 -2 15 5 12 10 13 -5 8 -122 -4 -100
-9 -135 -20 -141 -11 -7 -11 -12 -3 -22 12 -15 9 -78 -8 -170 -7 -36 -9 35 -8
247 0 191 5 298 11 298 6 0 4 4 -2 8 -8 5 -13 45 -15 120 -2 61 -5 112 -9 112
-3 0 -6 59 -8 130 -3 154 14 178 23 33z m-2694 -284 c0 -5 16 -9 35 -9 34 0
35 -1 35 -40 l0 -40 -97 6 c-147 9 -138 6 -138 45 0 33 1 34 43 37 24 2 50 -2
58 -9 11 -9 14 -8 14 2 0 8 11 15 25 15 14 1 25 -2 25 -7z m216 -18 c5 -4 26
-11 46 -14 28 -4 38 -2 43 11 5 14 7 14 15 2 6 -8 10 -30 10 -47 l0 -33 -77 0
c-43 0 -95 3 -115 6 -35 6 -38 9 -38 40 0 31 2 33 43 37 23 2 47 4 53 5 5 1
14 -2 20 -7z m780 -6 c19 -4 22 -11 19 -52 -1 -27 -3 -53 -3 -60 -1 -6 -16
-10 -34 -9 -18 2 -61 4 -95 5 -70 1 -69 0 -53 78 l11 48 67 -3 c37 -1 77 -5
88 -7z m234 -20 c4 -2 2 -29 -3 -60 l-11 -56 -77 4 c-42 2 -81 7 -86 10 -6 4
-7 26 -3 54 4 26 5 52 3 57 -5 8 162 0 177 -9z m-2227 -71 c20 -2 23 12 5 19
-8 3 -6 6 5 6 11 1 17 -6 17 -20 0 -11 5 -17 10 -14 6 3 10 15 10 26 0 20 4
20 87 14 48 -3 89 -8 92 -10 9 -10 -11 -135 -22 -135 -8 0 -9 -3 -1 -8 13 -9
-12 -301 -30 -345 -14 -35 -48 -33 -56 3 -7 32 -40 40 -40 11 0 -12 -5 -21
-11 -21 -7 0 -9 9 -6 21 7 26 -14 20 -29 -9 -5 -11 -15 -18 -21 -14 -11 7 -11
44 2 170 6 58 5 72 -6 72 -9 1 -8 4 4 11 11 6 17 22 17 44 0 19 2 35 4 35 2 0
11 3 20 6 20 8 21 -37 5 -151 -9 -70 -7 -116 7 -103 3 3 7 37 10 74 7 104 14
154 22 154 5 0 5 -33 1 -72 -13 -123 -11 -168 6 -168 8 0 15 9 15 19 0 11 5
23 11 27 7 4 9 -2 7 -16 -2 -13 3 -25 9 -27 9 -3 12 7 11 36 -1 40 -11 53 -22
29 -3 -7 -5 15 -3 49 1 34 -1 65 -6 69 -4 4 -6 19 -6 33 1 25 2 25 9 -4 l8
-30 1 29 c0 16 4 26 8 23 10 -11 33 13 33 34 0 14 -7 19 -30 19 -17 0 -30 5
-30 13 0 6 -5 4 -11 -5 -6 -12 -22 -18 -45 -18 -31 0 -35 3 -29 20 4 11 2 20
-4 20 -6 0 -11 -11 -11 -24 0 -13 -6 -26 -14 -29 -11 -5 -13 2 -10 29 3 25 0
34 -11 34 -9 0 -15 -9 -15 -25 0 -14 -5 -25 -11 -25 -10 0 -6 82 8 140 5 23 6
23 12 5 3 -11 14 -21 24 -21z m356 7 c4 -6 4 -32 1 -58 -4 -40 -9 -49 -27 -51
-12 -2 -24 -10 -27 -18 -4 -11 -2 -12 14 -4 28 15 30 13 30 -28 0 -45 -8 -56
-27 -41 -10 9 -13 7 -13 -10 0 -14 -6 -21 -20 -21 -20 0 -25 -12 -21 -61 1
-15 -5 -34 -14 -42 -10 -10 -15 -32 -15 -59 1 -69 0 -78 -16 -78 -8 0 -13 3
-11 8 3 4 8 59 11 122 11 186 14 200 50 217 l31 14 -34 -5 -34 -6 7 37 c3 21
6 53 6 71 l0 34 51 -5 c29 -3 55 -10 58 -16z m437 -108 c-8 -113 -14 -153 -28
-170 -6 -7 -7 -13 -3 -13 4 0 2 -7 -5 -15 -9 -10 -9 -15 -1 -15 6 0 11 -7 11
-16 0 -12 -9 -14 -37 -12 l-38 3 4 90 c2 50 5 106 6 125 2 19 3 54 4 78 l1 42
46 0 46 0 -6 -97z m259 75 c10 -6 7 -79 -10 -261 l-7 -68 -88 2 c-48 1 -92 -1
-98 -5 -11 -6 -22 15 -22 44 0 10 -6 20 -12 23 -10 3 -11 34 -4 142 l9 137
111 -4 c61 -2 116 -6 121 -10z m245 -12 c28 -1 29 -4 9 -157 -5 -47 -11 -100
-11 -118 -1 -38 -5 -40 -73 -45 -52 -4 -102 15 -71 27 9 4 14 12 12 19 -3 7
-7 25 -10 41 -9 38 -22 34 -30 -9 -9 -48 -29 -39 -37 17 -6 41 -2 200 6 226 3
8 29 10 92 6 48 -3 99 -6 113 -7z m1457 -126 c3 -17 10 -33 14 -36 5 -3 9 -23
9 -45 0 -22 5 -39 11 -39 8 0 10 14 6 41 -3 23 -2 38 3 33 7 -8 15 -81 11
-110 0 -7 -22 -12 -55 -13 -69 0 -81 13 -71 77 4 26 6 63 6 82 -1 33 1 36 29
38 27 2 31 -1 37 -28z m-537 -100 c0 -13 -7 -20 -19 -20 -21 0 -27 -23 -30
-131 -2 -64 -1 -69 18 -69 14 0 21 -6 21 -20 0 -17 -7 -20 -50 -20 l-50 0 0
104 0 104 48 36 c55 41 62 43 62 16z m-265 -423 c28 -2 -447 -3 -1055 -3 -608
0 -1035 3 -950 6 157 5 1913 3 2005 -3z"/>
<path d="M3750 4353 c0 -16 16 -24 80 -42 44 -13 79 -26 76 -28 -2 -3 -37 5
-77 16 -56 16 -75 18 -81 8 -4 -6 -8 -68 -8 -137 l0 -125 103 -27 c56 -15 113
-30 126 -34 21 -6 23 -5 18 17 -3 13 -8 65 -11 114 l-5 90 17 -115 18 -115 7
85 c4 47 7 119 7 161 l0 76 -117 33 c-65 18 -126 35 -135 38 -13 3 -18 -1 -18
-15z"/>
<path d="M3508 5593 c-3 -40 0 -61 9 -69 17 -15 16 -24 -2 -24 -8 0 -15 -6
-15 -14 0 -8 36 -27 88 -46 85 -32 119 -50 94 -50 -10 0 -10 -5 -2 -20 6 -11
17 -20 25 -20 7 0 20 -7 28 -15 13 -12 15 -10 20 18 2 18 5 73 6 123 l2 91
-30 13 c-17 7 -31 16 -31 21 0 12 6 11 40 -6 27 -14 30 -14 30 -1 0 10 -6 13
-15 10 -8 -4 -15 -1 -15 5 0 24 -59 41 -144 41 l-84 0 -4 -57z"/>
<path d="M4097 5643 c-2 -5 -5 -64 -7 -133 -1 -69 -5 -169 -8 -222 -7 -92 -6
-97 13 -102 20 -5 21 -12 18 -98 -2 -51 -5 -114 -7 -140 -2 -27 1 -48 5 -48 9
0 11 19 14 130 5 191 16 477 21 543 l5 77 -25 0 c-14 0 -27 -3 -29 -7z"/>
<path d="M4964 5642 c-13 -8 -17 -34 -15 -94 1 -36 4 -39 70 -73 66 -33 70
-37 74 -72 2 -21 4 21 5 93 l2 131 -25 11 c-29 13 -94 16 -111 4z"/>
<path d="M5099 5638 c6 -7 15 -13 19 -13 14 -1 173 -88 168 -92 -3 -3 -35 11
-73 31 -37 20 -70 36 -73 36 -3 0 -3 -51 -1 -112 2 -62 6 -105 10 -96 5 16 11
15 58 -9 35 -18 54 -35 58 -51 7 -29 3 -35 -18 -26 -9 3 -13 12 -11 19 3 7 1
16 -5 20 -7 3 -8 0 -5 -9 8 -21 1 -20 -46 4 -22 11 -40 18 -40 16 0 -4 168
-96 176 -96 2 0 5 51 6 113 2 61 7 -66 11 -283 5 -243 11 -396 18 -398 5 -2
16 -10 23 -18 8 -8 17 -14 19 -14 6 0 -1 606 -9 766 l-6 120 -94 52 c-80 44
-103 52 -146 52 -42 0 -49 -2 -39 -12z"/>
<path d="M3846 5569 c5 -9 2 -10 -10 -6 -11 4 -15 3 -10 -4 4 -6 2 -14 -4 -18
-11 -7 -20 -211 -9 -228 4 -6 20 -9 36 -8 22 2 37 -5 57 -26 15 -16 30 -26 34
-24 4 2 17 -7 29 -21 12 -14 26 -23 29 -19 4 4 1 10 -5 12 -18 6 -16 20 2 20
8 0 15 -6 15 -12 0 -7 11 -17 24 -23 23 -10 23 -9 30 50 3 34 6 98 6 143 l0
82 -77 31 c-43 16 -95 38 -116 47 -26 10 -36 12 -31 4z"/>
<path d="M5770 5317 c0 -29 19 -43 160 -112 52 -26 109 -57 125 -69 17 -11 31
-20 33 -18 1 2 29 -11 62 -29 33 -18 58 -34 56 -37 -3 -2 -26 7 -52 22 -54 30
-64 32 -64 11 0 -8 20 -25 45 -37 l45 -22 2 -65 c1 -37 2 -78 3 -93 1 -24 27
-57 45 -58 3 0 4 46 3 102 -1 88 0 95 7 48 4 -30 8 -104 9 -165 1 -90 21 -486
25 -492 1 -1 14 -5 29 -8 l28 -7 -5 48 c-3 27 -10 171 -16 319 -5 149 -13 302
-16 341 l-5 71 -52 26 c-29 15 -77 40 -107 57 -59 33 -339 183 -352 188 -5 2
-8 -8 -8 -21z"/>
<path d="M5148 5182 l3 -119 45 -21 c24 -12 46 -22 49 -22 2 0 6 15 8 33 4 29
4 29 3 -5 -1 -35 16 -58 44 -58 6 0 10 45 10 118 l0 117 -77 35 c-42 19 -79
36 -82 38 -3 1 -5 -51 -3 -116z"/>
<path d="M1360 5052 c0 -15 11 -22 48 -31 96 -24 292 -84 288 -88 -2 -3 -79
16 -171 42 -92 25 -168 45 -170 43 -1 -2 -5 -46 -9 -98 -3 -52 -9 -131 -12
-176 l-6 -80 190 -50 190 -50 6 60 c3 32 6 93 7 135 0 42 4 96 9 121 6 31 8
-11 5 -128 -2 -96 -1 -171 2 -168 6 6 44 358 40 363 -2 2 -89 28 -192 58 -104
30 -197 57 -207 61 -13 4 -18 0 -18 -14z"/>
<path d="M5142 4957 l2 -62 3 53 c2 28 7 52 11 52 4 0 31 -10 59 -22 51 -22
53 -24 52 -63 0 -22 -3 -34 -6 -27 -3 9 -15 7 -44 -10 -37 -21 -40 -25 -38
-64 2 -23 7 -48 13 -55 10 -12 19 -16 61 -22 5 -1 14 -7 20 -13 5 -7 19 -15
30 -18 19 -6 20 -1 18 117 l-1 122 -69 28 c-127 53 -113 55 -111 -16z"/>
<path d="M6862 4729 c2 -16 24 -34 85 -67 46 -25 81 -47 78 -50 -2 -2 -20 5
-40 16 -43 26 -50 5 -8 -26 23 -17 27 -28 32 -94 6 -69 21 -108 42 -108 5 0 6
37 4 83 l-4 82 9 -75 c14 -123 33 -453 28 -475 -3 -11 -6 17 -7 61 -1 75 -3
82 -23 87 -12 4 -23 5 -25 4 -1 -2 0 -42 4 -90 l6 -87 49 -25 c27 -14 52 -25
54 -25 3 0 2 21 -1 48 -3 26 -12 160 -20 297 -8 138 -18 270 -21 295 l-5 45
-112 60 c-62 33 -116 62 -120 64 -5 2 -7 -7 -5 -20z"/>
<path d="M7212 4540 c2 -17 31 -38 115 -84 61 -34 115 -65 120 -70 4 -5 -2 -4
-14 3 -28 14 -33 14 -33 -3 0 -8 6 -16 14 -19 9 -4 16 -32 20 -87 7 -78 8 -81
35 -86 l28 -6 12 -190 c7 -104 10 -192 7 -195 -3 -4 -7 18 -7 48 -2 78 -11
113 -32 117 -16 3 -18 -4 -15 -79 2 -61 7 -84 18 -89 8 -4 29 -15 47 -24 17
-9 35 -16 40 -16 5 0 4 64 -3 148 -6 81 -15 192 -19 247 -4 55 -10 129 -14
165 l-6 65 -90 50 c-240 135 -227 129 -223 105z"/>
<path d="M5177 4470 c4 -23 2 -30 -11 -30 -9 0 -16 -5 -16 -11 0 -5 5 -7 10
-4 6 3 11 -6 12 -22 0 -15 2 -37 3 -48 1 -11 3 -32 4 -47 1 -24 9 -29 82 -53
44 -15 83 -34 86 -42 4 -10 8 -11 13 -4 4 8 34 1 95 -21 105 -38 101 -49 -5
-13 -69 23 -96 26 -74 6 5 -5 33 -16 61 -26 29 -9 55 -20 58 -25 3 -5 -20 0
-51 10 -32 11 -59 20 -61 20 -9 0 -1 -60 9 -66 7 -5 8 -3 3 7 -5 8 1 6 12 -4
28 -24 73 -32 73 -13 0 8 4 17 9 20 5 3 9 -44 10 -106 1 -62 3 -113 4 -114 1
-1 15 -6 31 -10 l29 -7 -7 59 c-4 32 -4 55 0 51 4 -4 8 -145 8 -314 1 -170 0
-267 -1 -217 -3 85 -5 92 -26 98 -12 3 -25 6 -29 6 -3 0 -6 -57 -5 -127 1 -79
6 -127 12 -126 6 0 28 4 50 8 55 10 145 13 150 4 3 -3 -26 -10 -63 -14 -37 -4
-76 -9 -87 -11 -11 -3 -37 -7 -57 -11 -36 -5 -38 -7 -38 -45 0 -21 7 -50 16
-63 23 -36 24 -143 2 -178 -13 -19 -18 -46 -18 -94 1 -66 1 -67 15 -38 7 17
14 23 14 15 1 -13 2 -13 11 0 9 13 11 13 20 0 6 -10 6 -16 0 -18 -14 -5 -2
-22 15 -22 11 0 13 18 5 40 -1 3 -2 9 -1 14 1 4 -4 14 -10 22 -9 11 -8 14 4
14 18 0 47 -26 47 -42 0 -7 5 -7 14 1 11 9 15 4 20 -26 10 -62 11 -61 -51 -51
-32 4 -69 11 -82 14 l-24 5 6 -613 c3 -337 6 -614 7 -615 0 -2 48 -3 108 -4
59 0 128 -4 154 -8 43 -7 46 -6 37 10 -5 10 -9 20 -9 23 0 3 38 6 85 6 80 0
85 -1 85 -21 0 -21 3 -21 89 -15 101 7 94 12 107 -76 l6 -48 -111 0 -111 0 -1
33 c-1 17 -3 24 -6 15 -5 -20 -28 -24 -38 -7 -4 6 -13 8 -21 5 -8 -3 -14 0
-14 7 0 8 -3 7 -9 -2 -5 -8 -7 -21 -4 -30 4 -11 0 -9 -10 4 -16 20 -16 20 -17
-2 0 -16 -10 -27 -32 -38 -30 -13 -12 -14 182 -9 118 3 237 9 265 12 l50 7 7
50 c15 92 13 90 58 91 22 1 40 -2 40 -7 0 -5 16 -8 35 -6 19 1 35 5 35 9 0 4
15 6 34 5 34 -2 35 -3 46 -65 7 -34 13 -76 14 -92 1 -16 5 -32 9 -37 5 -4 8
-3 7 2 -6 29 1 85 10 80 6 -3 10 0 10 7 0 9 3 9 10 -2 8 -13 10 -13 10 2 0 11
5 15 15 12 16 -7 29 29 23 67 -3 22 1 24 45 26 26 1 46 -1 43 -5 -2 -4 37 -5
88 -4 91 4 93 3 92 -19 -1 -12 5 -24 12 -26 9 -4 11 2 6 22 l-7 27 89 -2 c182
-4 214 -1 214 16 0 14 8 16 54 11 30 -3 57 -3 60 1 4 3 57 7 119 9 61 1 172 4
245 7 124 3 132 3 132 -15 0 -11 5 -19 11 -19 9 0 10 25 5 90 -9 120 -34 531
-46 765 -14 261 -19 316 -30 330 -8 9 7 12 60 13 40 1 70 -3 70 -8 0 -6 -17
-10 -37 -10 -65 0 -64 7 -53 -241 5 -123 14 -280 19 -349 6 -69 13 -186 16
-260 8 -199 12 -220 37 -220 20 0 21 3 15 88 -13 177 -20 390 -13 408 16 41
24 -17 37 -253 l12 -243 91 -1 c79 -1 85 -3 46 -10 -25 -4 -82 -8 -127 -9 -71
-2 -83 -4 -83 -19 0 -15 14 -16 130 -14 128 2 130 2 130 -20 1 -20 2 -20 13
-5 11 14 14 14 23 2 7 -11 35 -15 111 -17 123 -2 138 -17 21 -18 -180 -2 -394
2 -410 7 -19 6 -35 -13 -22 -26 5 -5 72 -11 149 -13 l140 -4 23 -87 c13 -49
21 -94 18 -102 -4 -9 -21 -14 -51 -14 -36 0 -45 4 -46 18 0 11 -4 7 -11 -10
l-10 -28 -85 7 c-70 5 -85 4 -78 -7 6 -10 49 -12 214 -6 121 3 207 10 209 16
2 6 10 10 17 10 15 0 19 16 36 138 l11 82 62 1 c42 0 55 3 41 8 -11 5 -37 7
-58 6 -20 -2 -39 1 -43 6 -3 5 1 9 8 10 40 2 83 10 91 18 5 5 2 22 -7 40 -14
26 -14 31 -2 31 8 0 21 3 30 6 13 5 16 -2 16 -35 0 -46 17 -55 26 -14 10 49
14 49 9 0 -3 -41 -2 -48 11 -43 9 3 17 6 18 6 1 0 0 18 -2 41 -4 36 -2 40 14
37 26 -4 31 -45 7 -51 -17 -5 -17 -5 0 -6 10 0 15 -5 12 -11 -3 -5 1 -10 9
-10 12 0 16 10 16 40 0 29 4 40 15 40 18 0 21 -46 3 -53 -7 -3 14 -5 47 -5 33
0 54 2 48 5 -7 2 -13 18 -13 34 0 22 5 29 19 29 23 0 33 -24 27 -68 -2 -22 1
-32 10 -32 11 0 12 13 7 60 -5 52 -4 60 11 60 12 0 16 -10 16 -44 0 -28 7 -52
20 -69 11 -14 20 -33 20 -42 0 -14 9 -16 55 -13 l55 3 6 -45 c3 -25 10 -69 15
-99 5 -30 9 -72 9 -93 l0 -38 45 0 c25 0 45 4 45 8 0 5 -13 7 -29 4 -25 -3
-30 -1 -28 16 0 11 5 18 9 16 5 -3 6 -10 3 -15 -4 -5 -1 -9 4 -9 7 0 11 41 11
115 0 83 3 117 13 120 6 3 185 1 397 -5 212 -5 396 -9 410 -10 14 0 20 -4 15
-8 -6 -4 -8 -22 -4 -42 4 -20 7 -26 8 -14 0 12 8 24 15 27 10 4 13 1 9 -9 -3
-7 0 -14 6 -14 6 0 12 18 13 40 0 22 1 44 2 50 1 9 -210 15 -714 21 -118 1
-198 4 -178 6 41 4 42 8 51 88 l4 40 -71 -1 c-91 -1 -156 6 -156 16 0 13 104
8 112 -4 4 -6 8 2 8 18 0 24 -2 27 -15 16 -15 -13 -29 -8 -31 11 -1 5 -3 26
-4 47 -3 33 -4 31 -10 -18 -6 -51 -7 -52 -8 -14 -2 45 -25 77 -36 49 -3 -8 -1
-15 4 -15 6 0 10 -10 10 -23 0 -14 -6 -24 -15 -24 -19 0 -28 28 -19 62 5 21
11 26 30 22 12 -2 29 0 36 4 8 5 -10 9 -45 9 -67 0 -90 -15 -105 -70 l-10 -35
-3 38 c-3 42 -4 53 -18 197 -6 58 -10 143 -11 189 0 75 2 83 18 79 16 -5 17 2
10 81 -3 47 -10 129 -13 181 -4 52 -9 98 -11 102 -2 3 1 8 7 10 8 3 7 56 -6
193 -9 105 -17 194 -19 199 -2 8 -92 46 -109 46 -5 0 -5 -9 -2 -20 4 -13 1
-22 -10 -26 -13 -6 -14 -8 -1 -18 8 -6 17 -22 19 -36 2 -14 5 -4 6 23 1 34 5
47 15 47 8 0 18 -4 21 -10 3 -6 -1 -7 -9 -4 -13 5 -15 -4 -9 -63 3 -37 9 -69
13 -71 33 -13 39 -30 42 -127 3 -88 1 -100 -14 -103 -12 -2 -21 6 -28 23 -5
14 -14 23 -20 20 -6 -3 -7 1 -4 10 5 11 2 14 -10 9 -13 -5 -15 3 -12 57 4 67
-1 92 -15 83 -5 -3 -9 0 -9 6 0 7 7 10 15 6 11 -4 15 2 15 20 l0 26 -40 -32
c-22 -17 -40 -39 -40 -47 0 -11 6 -9 21 8 l20 24 -6 -22 c-5 -19 -2 -23 16
-23 16 0 19 -3 11 -13 -6 -7 -9 -25 -8 -40 2 -15 -1 -30 -6 -33 -4 -3 -6 -10
-3 -15 4 -5 2 -9 -4 -9 -6 0 -13 11 -17 25 -5 19 -10 23 -19 15 -8 -7 -17 -4
-30 10 -22 24 -13 27 11 3 16 -16 16 -16 9 7 -4 14 -13 28 -19 32 -8 6 -7 8 1
8 7 0 10 7 6 18 -10 28 -34 51 -48 46 -20 -8 -29 29 -10 42 11 9 13 14 5 19
-7 4 -10 18 -7 32 3 18 1 23 -10 19 -8 -3 -23 -1 -34 4 -17 10 -19 8 -17 -20
2 -21 7 -30 20 -30 11 0 18 -7 18 -20 0 -11 -6 -20 -13 -20 -22 0 -18 -38 5
-43 13 -4 17 -10 12 -18 -6 -10 -9 -10 -13 1 -3 9 -10 -2 -16 -24 -10 -36 -13
-25 -24 125 -17 232 -8 211 -101 244 -44 15 -78 30 -76 34 2 3 -11 7 -29 8
-26 1 -32 -2 -28 -13 3 -8 -1 -14 -8 -14 -8 0 -4 -7 8 -15 14 -10 23 -29 26
-53 3 -33 4 -32 3 7 0 29 5 46 13 49 8 3 11 0 7 -7 -4 -6 3 -16 18 -22 18 -9
26 -21 29 -48 4 -35 4 -35 5 7 2 33 6 42 20 41 9 0 12 -3 6 -5 -6 -3 -8 -24
-3 -62 4 -31 8 -66 8 -78 1 -12 11 -26 24 -33 22 -11 22 -11 -4 -8 l-26 4 5
-71 c5 -78 15 -99 43 -91 13 4 19 1 19 -9 0 -10 -9 -16 -21 -16 -21 0 -22 -3
-16 -79 l5 -79 -36 5 c-21 3 -42 10 -49 15 -7 5 -17 7 -22 3 -13 -7 -18 18
-25 114 -4 55 -2 77 9 87 12 13 12 100 -1 142 -6 22 -23 13 -27 -15 -2 -16 -4
-5 -3 22 1 99 -4 165 -12 165 -5 0 -7 -15 -5 -32 2 -28 0 -26 -11 12 -12 37
-24 34 -17 -3 1 -5 -4 -7 -11 -5 -8 3 -13 21 -13 43 0 22 -5 40 -13 42 -9 4
-10 -1 -3 -20 7 -19 5 -34 -10 -62 -11 -20 -16 -34 -11 -31 5 3 9 -8 8 -24 -1
-17 -7 -30 -13 -30 -7 0 -13 -4 -13 -10 0 -5 11 -10 25 -10 18 0 25 -5 25 -20
0 -11 -5 -20 -10 -20 -6 0 -9 -6 -8 -12 2 -7 -3 -12 -9 -10 -7 1 -13 -6 -14
-15 0 -15 -2 -15 -8 2 -5 12 -4 23 3 27 8 6 8 8 0 8 -7 0 -14 40 -18 108 -12
186 -8 177 -85 205 -36 14 -73 28 -82 32 -25 9 -32 -32 -9 -48 10 -7 20 -26
23 -42 4 -27 4 -27 6 7 1 29 -3 38 -20 43 -11 4 -19 9 -16 11 2 2 17 -1 33 -8
32 -14 33 -19 41 -126 5 -66 8 -74 29 -82 28 -11 33 -30 36 -135 3 -77 2 -80
-18 -77 -21 3 -21 0 -16 -88 3 -61 1 -90 -6 -90 -18 0 -23 17 -32 108 l-9 87
4 -92 c3 -76 1 -93 -11 -93 -8 0 -14 6 -14 13 0 28 -30 437 -36 494 -4 39 -11
64 -20 67 -8 3 -14 1 -14 -3 0 -5 4 -11 8 -13 5 -1 12 -22 15 -44 6 -39 5 -42
-16 -41 -12 1 -33 -3 -46 -7 -20 -7 -23 -6 -18 9 6 15 -19 53 -31 48 -15 -5
-21 -33 -16 -67 4 -27 3 -36 -5 -32 -6 4 -11 19 -11 33 0 33 -9 25 -12 -10 -1
-14 -6 -23 -11 -20 -5 3 -6 17 -3 32 6 23 5 24 -7 9 -21 -27 -30 -22 -12 6 15
22 14 25 -15 54 -28 29 -30 29 -30 9 0 -12 5 -39 11 -60 6 -24 7 -43 0 -54 -8
-15 -9 -14 -10 7 -1 14 -6 86 -12 160 l-12 136 -76 26 c-42 15 -113 41 -157
58 -72 27 -81 33 -76 52 3 13 1 19 -5 15 -5 -4 -10 -18 -9 -33 1 -31 33 -53
109 -74 26 -7 50 -17 53 -21 3 -5 15 -9 27 -9 18 0 19 -2 7 -10 -12 -8 -12
-10 2 -15 12 -5 18 -27 23 -96 7 -82 9 -91 31 -101 29 -14 31 -20 39 -142 l7
-99 -27 6 -28 5 6 -100 6 -100 -27 6 c-15 3 -43 9 -62 11 -68 10 -68 10 -74
88 -11 134 -14 142 -13 37 2 -100 1 -105 -18 -102 -11 2 -21 5 -22 6 -1 1 -9
132 -18 291 -9 160 -18 295 -20 300 -4 11 -9 -101 -5 -124 1 -13 -1 -13 -14
-2 -11 9 -16 10 -16 2 0 -10 13 -15 32 -12 4 0 5 -6 2 -14 -4 -8 -10 -13 -14
-10 -5 3 -10 0 -13 -7 -2 -7 -3 -5 -2 5 2 9 -1 17 -6 17 -5 0 -9 -15 -9 -32
l-1 -33 -19 24 c-11 13 -19 31 -19 40 1 14 2 13 6 -1 6 -22 19 -23 27 -2 8 20
8 24 -1 23 -22 -4 -31 3 -31 24 0 27 -11 171 -17 210 -3 25 -1 28 18 23 61
-16 68 -15 25 6 -42 21 -46 26 -43 56 1 17 -1 32 -5 32 -4 0 -8 30 -9 67 -1
37 -4 70 -7 72 -3 3 -4 -40 -2 -97 3 -112 3 -112 -56 -87 -20 8 -36 11 -36 7
0 -5 19 -15 43 -22 23 -7 45 -16 49 -19 9 -8 14 -194 5 -207 -3 -6 -3 -14 0
-18 4 -3 9 -27 11 -52 l3 -46 -22 21 c-13 12 -27 21 -32 21 -4 0 -16 7 -24 16
-13 13 -17 13 -24 2 -5 -8 -9 11 -9 47 0 35 4 55 8 47 5 -8 16 -10 28 -5 16 6
17 4 6 -9 -10 -12 -10 -18 2 -27 17 -14 22 -8 30 39 3 19 3 29 0 22 -8 -17
-24 -5 -17 13 3 8 1 15 -5 15 -5 0 -12 -7 -16 -15 -7 -18 -28 -16 -38 5 -4 8
-7 47 -7 85 -1 39 -4 108 -8 155 -6 70 -8 78 -13 45 -3 -22 -2 -52 1 -67 4
-16 6 -28 4 -28 -15 0 -257 94 -249 97 6 2 8 22 4 53 -4 30 -2 54 4 61 8 8 7
13 -1 16 -9 3 -13 27 -13 70 0 37 -3 63 -7 59 -4 -4 -6 -58 -5 -120 2 -94 0
-115 -12 -119 -9 -4 -18 -2 -21 2 -2 5 -21 12 -42 16 -20 4 -43 14 -51 23 -7
9 -11 11 -7 4 8 -16 -36 -7 -83 18 -24 13 -28 19 -17 24 8 3 15 10 15 16 0 6
-10 4 -23 -5 -28 -18 -88 -10 -81 10 3 7 -4 16 -15 20 -12 4 -18 12 -14 21 3
8 -1 14 -11 14 -9 0 -16 5 -16 11 0 5 -4 8 -10 4 -5 -3 0 -15 11 -26 24 -24
16 -41 -16 -33 -22 5 -24 2 -28 -38 l-4 -43 -1 46 -2 47 -80 28 c-79 27 -91
36 -68 50 7 4 8 3 4 -4 -10 -16 41 -27 58 -13 12 10 15 8 19 -11 4 -22 4 -22
6 -2 0 12 -8 32 -19 45 -16 20 -19 21 -20 7 0 -24 -30 -23 -30 1 0 10 -7 22
-16 25 -14 5 -14 9 -3 24 12 15 12 16 -2 4 -9 -7 -24 -10 -33 -6 -9 4 -18 0
-22 -9 -3 -9 -12 -13 -20 -10 -8 3 -14 0 -14 -6 0 -6 10 -11 22 -11 27 0 21
-5 -15 -14 -21 -5 -27 -4 -21 5 4 8 3 9 -4 5 -6 -4 -23 -4 -37 0 -25 6 -25 7
-9 32 14 22 14 24 1 19 -19 -7 -29 14 -16 34 8 12 10 12 18 -1 6 -8 13 -11 18
-6 4 4 0 12 -10 17 -9 6 -17 19 -17 29 0 11 -5 20 -11 20 -7 0 -18 8 -25 18
-10 14 -12 6 -10 -54 2 -39 7 -77 11 -84 6 -10 4 -12 -11 -6 -10 4 -53 19 -94
33 -41 14 -79 31 -85 38 -5 6 -15 10 -22 8 -7 -3 -27 2 -45 11 -18 8 -43 17
-55 21 -13 3 -23 11 -23 16 0 6 5 7 10 4 6 -3 10 -1 10 4 0 6 -5 11 -11 11 -5
0 -7 5 -4 10 8 13 -25 26 -34 14 -7 -10 -35 -10 -66 1 -13 4 -12 1 5 -8 14 -9
28 -13 32 -11 3 2 9 0 13 -5 3 -6 12 -8 20 -4 8 3 15 0 15 -6 0 -6 -3 -11 -7
-11 -20 0 -244 85 -230 88 12 3 14 9 6 34 -4 17 -6 35 -3 39 3 5 0 9 -5 9 -6
0 -11 8 -11 18 0 13 2 14 9 4 6 -10 10 -10 21 3 11 13 9 15 -10 15 -19 0 -21
4 -16 24 3 14 2 28 -4 31 -11 7 -12 -1 -10 -102 1 -40 -3 -73 -7 -73 -17 0
-178 61 -188 71 -7 7 -4 8 8 4 9 -4 17 -3 17 3 0 6 -6 12 -12 14 -11 4 -15 25
-17 116 -1 17 -5 32 -11 32 -5 0 -7 -13 -3 -30z m678 -425 c30 -10 53 -20 51
-23 -3 -2 -26 3 -52 12 -57 19 -55 19 -48 2 3 -8 18 -18 34 -21 l28 -6 7 -125
c4 -68 10 -124 14 -124 3 0 17 -3 30 -7 l23 -6 -7 119 c-5 91 -3 116 6 107 6
-6 13 -26 15 -44 2 -18 8 -35 12 -38 16 -11 21 -51 6 -51 -8 0 -14 -7 -14 -16
0 -8 4 -13 9 -10 15 10 19 -31 21 -213 0 -109 -3 -180 -9 -183 -5 -1 -12 -57
-15 -122 -3 -66 -8 -121 -11 -124 -3 -3 -5 51 -5 119 0 68 -4 129 -8 135 -4 6
-18 14 -32 17 l-25 6 3 -134 c3 -127 2 -135 -15 -135 -47 0 -51 15 -57 205 -3
99 -6 231 -6 293 0 62 -4 111 -8 108 -5 -3 -9 1 -9 9 0 8 4 12 9 9 4 -3 8 11
8 30 0 22 -5 36 -12 37 -10 0 -10 2 0 6 13 5 17 24 5 22 -22 -4 -24 3 -7 22
19 21 19 22 -3 15 -16 -5 -25 -2 -33 15 -7 13 -8 19 -2 15 6 -4 16 2 22 11 11
17 11 17 6 1 -3 -10 -1 -18 5 -18 17 0 2 70 -20 94 -17 18 -19 26 -10 31 7 5
10 4 6 -2 -4 -6 0 -13 8 -17 10 -4 15 2 16 17 2 21 2 21 6 1 3 -14 20 -26 58
-39z m312 -94 c3 -11 21 -23 45 -30 22 -7 38 -14 35 -17 -2 -2 -16 0 -31 6
-34 13 -46 13 -46 0 0 -5 11 -12 25 -16 25 -6 25 -7 25 -119 l0 -113 34 -12
34 -11 1 -145 2 -146 -30 7 -29 6 5 -130 6 -130 -23 6 c-12 3 -23 11 -25 17
-2 6 -9 180 -15 386 -10 319 -14 413 -19 428 -1 1 -1 5 0 8 0 4 -5 11 -13 15
-11 7 -11 9 0 9 8 0 16 -8 19 -19z m571 -187 c15 -3 34 -13 42 -24 8 -10 27
-22 43 -26 15 -3 30 -10 33 -15 3 -5 13 -9 22 -9 9 -1 31 -8 47 -16 29 -14 23
-14 -22 0 -34 11 -28 -10 7 -22 l29 -11 3 -98 c3 -96 3 -98 31 -111 41 -20 27
-25 -27 -11 -26 6 -49 9 -52 6 -3 -3 -2 -53 2 -111 l7 -105 56 -18 c50 -15 53
-18 26 -21 l-30 -3 3 -66 4 -66 -26 7 c-23 6 -26 4 -26 -22 0 -38 6 -42 40
-29 22 8 33 8 41 0 9 -9 0 -14 -38 -19 -28 -3 -56 -9 -62 -13 -9 -6 -9 -84 0
-327 12 -337 24 -522 28 -429 8 152 31 -182 31 -443 l0 -83 273 6 c174 4 268
3 262 -3 -6 -5 -130 -13 -279 -16 -149 -4 -272 -9 -275 -11 -10 -11 9 -14 87
-16 46 -1 80 -4 78 -7 -5 -4 -178 -4 -182 1 -1 1 -7 128 -13 282 -6 154 -18
453 -27 665 l-16 385 -27 22 -26 22 40 -14 c22 -7 40 -12 41 -12 1 1 -2 49 -6
107 -4 58 -8 84 -8 58 -2 -46 -3 -48 -31 -48 -27 0 -29 3 -35 53 -3 28 -11
160 -17 292 -6 132 -14 247 -19 255 -4 8 -5 20 -3 27 6 17 -16 26 -32 13 -10
-9 -19 -9 -32 0 -16 9 -15 10 7 5 24 -6 24 -5 6 9 -11 9 -26 16 -33 16 -7 0
-13 5 -13 10 0 7 7 7 21 0 11 -7 33 -14 47 -16z m-518 -1261 c0 -5 15 -9 33
-10 84 -6 83 -3 94 -212 4 -80 9 -130 11 -111 5 47 19 61 38 36 12 -18 14 -5
14 110 0 71 4 134 8 139 7 10 47 13 55 5 6 -7 29 -320 29 -400 0 -36 3 -56 5
-45 3 11 8 25 12 30 4 6 7 25 5 43 -1 18 3 35 9 39 5 3 7 1 3 -5 -3 -6 -2 -13
4 -17 7 -4 10 40 10 128 0 74 3 155 6 180 6 39 9 45 27 41 26 -5 37 -21 37
-59 0 -52 12 -105 22 -99 5 3 16 0 25 -8 12 -9 15 -9 9 -1 -5 9 -2 11 8 7 9
-3 16 -10 16 -15 0 -11 21 -7 37 7 6 6 13 35 15 64 3 49 5 53 30 56 27 2 27 2
34 -76 6 -74 8 -78 29 -75 22 2 24 -2 29 -79 3 -45 8 -186 11 -314 l5 -234
-73 7 c-105 10 -236 11 -230 3 2 -5 -16 -8 -41 -8 -25 0 -46 -5 -48 -12 -3 -8
-8 -7 -17 3 -10 11 -35 13 -102 11 -55 -3 -89 0 -89 6 0 6 -64 9 -177 7 -118
-2 -166 0 -143 6 19 5 73 9 120 8 47 0 91 0 98 0 11 1 12 75 6 426 -6 391 -6
425 10 425 9 0 16 -3 16 -7z m819 -258 c9 5 18 -112 27 -371 l7 -181 -26 0
-25 0 -6 141 c-17 399 -16 461 6 422 5 -9 13 -14 17 -11z m640 -16 c2 73 9 19
20 -164 22 -372 21 -365 41 -365 11 0 21 4 24 9 5 7 -1 137 -19 426 -5 83 -4
88 9 60 l14 -30 1 30 c1 18 5 25 10 20 11 -12 18 -94 26 -320 4 -93 9 -178 11
-187 3 -10 -2 -18 -13 -21 -33 -9 -309 -6 -283 3 14 4 56 8 94 9 l69 1 -6 108
c-12 189 -16 459 -8 422 l8 -35 2 34z"/>
<path d="M6527 1973 c-4 -3 -7 -16 -8 -27 -1 -19 -2 -18 -10 4 -6 18 -6 -256
0 -277 1 -2 14 -3 31 -3 29 0 29 1 26 48 -2 26 -5 88 -6 137 -2 58 -5 79 -9
60 -5 -25 -8 -27 -14 -12 -13 33 -8 65 11 70 14 4 14 5 1 6 -9 0 -19 -2 -22
-6z"/>
<path d="M7880 4167 c0 -8 23 -26 50 -41 28 -15 50 -29 50 -32 0 -3 -9 0 -20
6 -16 8 -20 8 -20 -4 0 -8 4 -17 9 -20 4 -3 11 -34 15 -68 5 -49 12 -68 31
-86 19 -17 25 -33 25 -65 0 -23 3 -66 7 -96 6 -52 5 -53 -15 -42 -30 16 -30
16 -25 -36 9 -104 11 -108 54 -127 22 -10 42 -16 44 -14 3 2 0 53 -5 114 -6
60 -14 161 -20 224 -5 63 -13 139 -16 167 l-6 53 -73 40 c-80 44 -85 46 -85
27z"/>
<path d="M8110 4037 c0 -12 27 -30 113 -74 15 -8 27 -17 27 -19 0 -3 -5 -2
-11 2 -7 4 -9 0 -6 -12 3 -11 9 -47 12 -82 5 -47 12 -65 26 -73 15 -8 19 -6
19 7 0 43 11 0 15 -62 3 -38 8 -80 11 -93 9 -41 13 -189 4 -156 -4 17 -8 49
-9 71 -1 34 -5 43 -22 47 -21 6 -21 3 -15 -46 3 -29 6 -62 6 -74 0 -14 9 -24
28 -31 15 -5 36 -13 46 -18 18 -7 19 -3 12 52 -3 32 -13 133 -21 224 -19 210
-24 250 -34 250 -5 0 -48 22 -97 50 -97 54 -104 57 -104 37z"/>
<path d="M8570 3785 c0 -8 5 -17 11 -21 8 -4 7 -9 -2 -16 -9 -6 -5 -7 12 -2
17 3 30 1 35 -7 5 -9 2 -11 -8 -6 -14 5 -15 -3 -11 -56 4 -49 10 -66 28 -82
20 -16 25 -34 31 -97 7 -76 6 -78 -15 -78 -16 0 -21 -5 -18 -17 3 -10 8 -38
11 -63 6 -38 11 -47 37 -59 17 -7 33 -11 36 -7 5 5 -20 319 -34 423 -5 40 -10
45 -59 72 -38 20 -54 25 -54 16z"/>
<path d="M8780 3660 c0 -6 11 -16 25 -22 16 -7 21 -14 14 -19 -8 -4 -9 -26 -4
-67 5 -47 11 -62 28 -71 l22 -12 -22 5 c-21 4 -22 1 -17 -48 8 -71 13 -85 24
-66 7 12 10 11 15 -5 15 -46 15 -46 -5 -35 -17 9 -20 8 -20 -12 0 -13 3 -40 6
-61 6 -31 13 -40 42 -52 19 -8 35 -15 36 -15 2 0 -32 355 -39 406 -5 36 -11
43 -51 62 -51 25 -54 26 -54 12z"/>
<path d="M8930 3582 c0 -4 6 -59 14 -122 8 -63 18 -157 21 -208 6 -76 10 -94
26 -103 25 -13 25 -7 -1 235 -18 179 -25 205 -52 206 -5 0 -8 -4 -8 -8z"/>
<path d="M8801 2988 c0 -18 5 -60 10 -93 27 -184 28 -200 13 -212 -13 -10 -12
-12 6 -18 l22 -7 -23 -23 c-13 -12 -27 -20 -31 -18 -5 2 -8 -3 -8 -12 0 -9 5
-13 10 -10 6 3 10 -1 10 -10 0 -9 -5 -13 -11 -9 -9 5 -10 -14 -4 -72 4 -43 9
-113 10 -154 2 -63 5 -75 19 -74 9 1 16 -2 16 -7 0 -5 41 -9 90 -9 53 0 90 4
90 10 0 6 -15 10 -34 10 -41 0 -57 16 -24 23 13 3 -4 4 -37 1 -50 -3 -54 -2
-25 5 19 5 36 14 38 20 2 6 15 11 28 11 26 0 33 24 10 33 -10 4 -13 1 -9 -9 3
-9 -2 -14 -17 -14 -12 0 -28 -7 -36 -15 -24 -24 -37 -19 -33 11 0 4 -5 10 -11
14 -8 5 -7 9 4 13 11 5 16 0 16 -14 0 -12 5 -19 13 -16 16 5 10 37 -12 62 -10
11 -21 28 -24 38 -4 9 -12 17 -18 17 -8 0 -7 -6 2 -17 13 -16 12 -17 -3 -4
-22 17 -23 35 -3 55 9 9 11 17 5 21 -20 12 -9 21 20 17 28 -4 31 -2 26 19 -3
13 -13 116 -22 228 -15 169 -21 208 -36 223 -27 27 -38 22 -37 -14z"/>
<path d="M8942 2958 c3 -7 15 -15 29 -19 13 -4 17 -7 8 -8 -25 -2 -14 -111 15
-133 18 -15 19 -18 4 -18 -14 0 -18 -8 -18 -37 0 -48 10 -83 22 -83 5 0 7 24
4 58 -4 39 -3 49 3 32 5 -14 9 -46 10 -72 1 -40 -2 -46 -15 -41 -14 5 -15 -1
-9 -58 4 -35 10 -67 14 -70 3 -4 21 -10 40 -14 32 -7 33 -6 28 16 -3 13 -13
113 -23 223 l-18 199 -44 18 c-52 22 -55 23 -50 7z"/>
<path d="M9830 2096 c0 -7 7 -19 16 -27 11 -9 15 -25 12 -51 -2 -21 1 -38 6
-38 5 0 6 -3 3 -7 -4 -3 -3 -11 2 -17 4 -6 11 -57 15 -113 6 -99 5 -103 -14
-103 -14 0 -20 7 -20 24 0 45 -13 86 -27 86 -7 0 -13 -6 -12 -12 1 -7 0 -26
-1 -43 -2 -30 -2 -30 -10 -5 l-8 25 -2 -25 -2 -25 -12 29 c-7 16 -15 25 -18
20 -10 -16 -5 -94 5 -94 6 0 8 -2 6 -4 -4 -4 -37 1 -116 19 -12 3 -28 -2 -37
-11 -15 -14 -17 -13 -26 10 -5 15 -7 46 -3 71 5 42 4 45 -16 45 -21 0 -22 -3
-16 -57 14 -134 15 -158 6 -138 -5 11 -10 32 -10 48 -1 15 -5 27 -10 27 -5 0
-9 6 -8 13 0 6 -1 21 -3 32 -2 15 -4 12 -9 -10 -6 -28 -9 -30 -56 -30 l-50 0
-5 55 c-4 42 -9 56 -22 58 -12 2 -18 -3 -18 -14 0 -17 -1 -17 -13 0 -12 16
-13 10 -11 -45 l3 -64 -8 51 c-15 93 -38 103 -33 14 3 -39 0 -60 -7 -60 -6 0
-11 20 -11 48 0 31 -3 42 -9 33 -12 -18 -2 -193 11 -206 7 -7 9 5 6 38 -2 33
1 47 9 47 7 0 13 -11 13 -24 0 -31 10 -56 21 -56 5 0 9 7 9 16 0 8 5 12 10 9
6 -4 10 6 10 21 0 22 3 25 12 16 14 -14 32 -16 23 -2 -8 13 33 22 81 18 38 -3
39 -4 42 -45 2 -24 8 -43 14 -43 5 0 8 7 4 15 -7 18 20 21 27 3 4 -10 8 -9 17
2 9 11 13 12 17 3 10 -27 23 -11 23 27 l0 40 64 0 c61 0 64 -1 76 -30 7 -16
16 -30 21 -30 5 0 9 -7 9 -15 0 -8 5 -15 11 -15 6 0 9 7 5 15 -3 9 0 15 9 15
8 0 15 -7 15 -15 0 -8 5 -15 11 -15 8 0 10 15 7 45 l-6 45 53 0 c33 0 55 -5
58 -12 4 -10 6 -10 6 0 1 17 21 15 21 -2 0 -8 5 -18 12 -22 8 -5 9 0 5 15 -3
14 -1 21 6 18 7 -2 15 -19 18 -38 6 -31 6 -30 8 14 l1 47 -41 0 c-38 0 -41 2
-35 23 3 13 1 36 -4 52 -9 28 -9 27 -4 -7 4 -33 2 -38 -15 -38 -25 0 -41 28
-41 74 0 24 5 36 18 39 13 4 11 5 -5 6 -21 1 -23 6 -23 54 0 28 5 59 10 67 9
13 10 13 11 0 1 -8 1 -21 0 -27 -1 -7 3 -13 9 -13 5 0 10 5 10 11 0 5 5 7 10
4 6 -3 10 -2 10 4 0 5 7 17 16 25 8 9 11 16 5 16 -6 0 -8 6 -5 14 3 8 1 17 -5
21 -6 3 -11 16 -11 29 0 18 -6 22 -35 24 -20 2 -47 7 -60 12 -19 7 -25 6 -25
-4z"/>
<path d="M9037 2050 c22 -9 23 -22 4 -55 -3 -5 -6 -22 -7 -37 -2 -28 -2 -28
62 -27 l64 1 0 33 c0 18 -3 47 -6 64 l-6 31 -67 -1 c-49 0 -60 -3 -44 -9z"/>
<path d="M2040 1140 c0 -16 4 -30 9 -30 5 0 7 -9 4 -20 -7 -26 -17 -25 -36 3
-13 18 -16 19 -16 5 -1 -10 -15 -28 -32 -40 -19 -15 -29 -29 -26 -40 3 -10 1
-20 -3 -23 -5 -3 -11 3 -13 12 -4 15 -6 14 -12 -5 -6 -18 -10 -20 -16 -10 -7
10 -9 9 -9 -4 0 -10 5 -18 10 -18 6 0 10 -5 10 -11 0 -5 -4 -7 -10 -4 -6 3
-10 -4 -10 -17 0 -18 2 -20 10 -8 8 12 10 11 10 -7 0 -26 10 -29 29 -10 11 10
13 9 7 -6 -3 -10 -6 -23 -6 -28 0 -6 -5 -7 -12 -3 -7 4 -8 3 -4 -5 4 -6 0 -18
-8 -27 -15 -14 -16 -14 -16 0 0 9 -4 16 -10 16 -5 0 -10 -9 -10 -20 0 -13 7
-20 19 -20 11 0 22 -8 24 -17 4 -17 5 -17 6 0 1 19 16 23 26 7 3 -6 -1 -17 -9
-26 -12 -12 -13 -20 -5 -35 7 -14 7 -24 0 -33 -6 -7 -8 -16 -4 -19 3 -4 1 -7
-6 -7 -9 0 -9 -5 -1 -20 6 -11 8 -25 5 -30 -3 -6 2 -10 12 -10 14 0 12 -4 -9
-18 -16 -9 -28 -22 -28 -29 0 -7 -6 -16 -12 -20 -21 -13 -17 -52 6 -59 12 -4
28 -15 37 -25 9 -11 19 -19 23 -19 8 0 26 -14 64 -50 15 -14 38 -31 52 -38 14
-7 43 -24 65 -37 22 -13 47 -24 56 -24 19 -1 122 -42 129 -51 3 -4 27 -10 53
-13 27 -4 85 -18 130 -32 88 -26 254 -65 300 -70 16 -2 34 -10 40 -18 22 -27
131 -46 307 -53 68 -3 132 -10 142 -15 9 -5 24 -6 32 -3 9 4 16 1 16 -6 0 -7
8 -10 20 -7 11 3 22 1 25 -3 6 -9 81 -21 143 -22 23 0 45 -4 48 -9 8 -13 2205
-11 2221 3 7 6 13 6 13 1 0 -5 16 -10 35 -11 19 -1 35 2 35 7 0 5 10 9 23 9
12 0 41 3 64 6 29 4 42 2 40 -5 -1 -7 4 -14 12 -17 10 -3 12 0 8 11 -4 10 1
17 14 20 10 3 19 1 19 -5 0 -6 11 -8 28 -4 46 12 76 13 90 2 9 -7 16 -6 22 4
4 7 17 11 29 7 12 -3 21 -1 21 3 0 4 9 6 20 3 11 -3 20 -1 20 4 0 5 23 9 51 8
27 -1 53 3 55 7 3 5 35 8 72 8 103 0 117 1 102 10 -9 6 -9 9 0 15 9 6 9 10 -1
17 -11 8 -10 9 4 4 9 -3 17 -2 17 2 0 7 88 14 195 16 53 1 72 17 33 28 -21 5
-21 6 -3 9 11 1 31 3 45 3 43 3 109 38 103 55 -3 11 -2 12 4 4 6 -9 19 -9 48
-2 22 6 48 11 58 12 9 1 17 9 17 18 0 9 6 17 13 16 33 -1 47 4 47 19 0 10 8
15 23 13 12 -1 44 1 70 6 39 6 45 9 32 19 -13 9 -10 14 20 30 30 17 35 24 30
44 -4 15 -2 21 5 17 6 -4 10 5 10 22 0 17 8 34 20 43 24 17 26 30 5 30 -8 0
-15 4 -15 9 0 5 9 7 20 4 11 -3 20 0 20 6 0 6 -15 11 -34 11 -25 0 -35 5 -39
20 -5 21 -48 43 -116 60 -32 9 -41 14 -32 23 24 24 9 24 -50 0 -33 -13 -67
-22 -75 -19 -9 3 -12 1 -9 -4 3 -6 -4 -10 -17 -10 -18 0 -20 2 -8 10 8 5 11
12 8 15 -10 10 -28 -4 -28 -21 0 -8 -4 -14 -8 -14 -5 0 -9 7 -9 15 0 8 4 15 9
15 5 0 6 5 3 10 -8 13 14 42 26 34 5 -3 7 -10 4 -15 -4 -5 0 -9 8 -9 20 0 30
29 16 46 -16 20 -42 17 -59 -6 -8 -11 -25 -20 -38 -20 -12 0 -25 -7 -28 -15
-4 -8 -10 -13 -14 -10 -5 3 -12 0 -15 -6 -5 -7 -14 -4 -29 9 -11 10 -36 26
-54 35 -33 16 -33 16 -44 -11 -6 -15 -10 -33 -9 -39 1 -7 -5 -13 -14 -13 -9 0
-13 5 -10 10 10 16 -11 12 -25 -5 -17 -20 -27 -19 -35 5 -10 30 -51 21 -47
-11 2 -17 -4 -11 -18 19 -24 50 -35 53 -44 11 -4 -21 -10 -29 -20 -26 -7 3
-30 2 -50 -3 -22 -5 -38 -4 -42 2 -3 5 -14 2 -24 -7 -20 -18 -40 -13 -40 11 0
8 -4 14 -10 14 -5 0 -10 -9 -10 -20 0 -12 -5 -17 -14 -14 -8 3 -17 0 -21 -5
-7 -13 -25 -5 -25 10 0 6 5 7 12 3 7 -4 8 -3 4 4 -12 20 -23 14 -36 -19 -12
-27 -11 -33 3 -41 9 -5 17 -13 17 -17 0 -9 -50 -2 -51 8 0 3 -2 15 -5 26 -2
11 -5 32 -6 47 -1 16 -9 29 -20 31 -21 6 -23 -4 -6 -21 7 -7 8 -12 2 -12 -5 0
-16 6 -23 13 -10 10 -16 8 -31 -10 -20 -25 -34 -30 -27 -10 2 6 0 20 -4 29 -7
12 -4 20 8 28 13 8 14 13 5 16 -6 3 -10 10 -6 15 3 5 0 9 -5 9 -6 0 -11 -5
-11 -12 0 -6 -2 -9 -5 -6 -15 15 10 38 41 38 24 0 34 5 34 15 0 13 11 19 31
17 3 -1 5 14 5 32 -1 26 -4 32 -16 28 -22 -8 -39 -34 -40 -57 0 -17 -7 -21
-42 -22 -42 -2 -43 -2 -22 15 12 9 25 27 29 40 3 12 13 22 21 22 17 0 17 8 0
39 -7 13 -11 33 -9 45 4 16 2 17 -5 7 -6 -8 -17 -11 -32 -6 -19 6 -22 4 -17
-9 8 -21 -2 -21 -18 1 -11 15 -13 15 -19 -5 -4 -12 -12 -22 -17 -22 -5 0 -9
-7 -7 -16 2 -10 -3 -19 -11 -22 -10 -3 -13 1 -9 15 7 27 -17 57 -38 49 -12 -5
-15 -2 -10 10 3 8 6 20 6 26 0 6 7 8 15 4 8 -3 15 -1 15 4 0 15 -32 42 -62 52
-22 8 -26 13 -18 23 8 9 8 15 0 20 -5 3 -10 3 -10 -2 0 -4 -11 -9 -25 -9 -20
-2 -23 1 -16 15 13 25 3 45 -16 29 -8 -6 -32 -11 -53 -9 -21 1 -41 -3 -45 -9
-5 -8 -11 -8 -21 1 -9 7 -29 14 -47 16 -17 2 -36 8 -41 13 -18 18 -33 10 -43
-24 -10 -34 -10 -34 24 -41 28 -5 39 -2 55 14 26 29 42 27 34 -4 -7 -29 -3
-31 18 -9 20 19 75 22 87 3 7 -12 9 -12 9 1 0 10 3 11 8 4 4 -7 18 -14 32 -16
14 -2 24 -9 22 -16 -1 -8 2 -11 8 -7 6 3 19 3 30 0 15 -5 19 -12 14 -29 -3
-12 -6 -30 -8 -40 -1 -11 -11 -25 -21 -32 -10 -8 -15 -14 -9 -14 5 0 4 -4 -2
-8 -6 -4 -19 -20 -28 -37 -10 -16 -15 -22 -12 -12 3 10 0 17 -9 17 -7 0 -17 4
-20 10 -3 5 0 7 8 4 22 -8 31 28 11 43 -11 8 -14 20 -10 36 4 17 1 24 -9 24
-7 0 -13 -5 -12 -11 1 -6 -7 -10 -18 -8 -18 2 -18 2 -3 -8 15 -9 16 -14 5 -30
-15 -25 -31 -26 -25 -2 5 19 -13 42 -34 42 -8 -1 -7 -5 5 -14 22 -17 22 -25
-3 -23 -11 1 -20 5 -20 9 0 4 -5 8 -11 8 -6 0 -9 -7 -5 -15 8 -21 -11 -19 -23
3 -10 16 -10 16 -11 -2 0 -11 -3 -17 -6 -13 -3 3 -15 -3 -27 -13 -11 -11 -24
-17 -30 -13 -5 3 -7 0 -5 -8 3 -8 11 -13 17 -11 7 1 10 -2 7 -7 -4 -5 -2 -12
3 -15 5 -4 13 -1 17 5 4 8 9 7 15 -2 6 -11 14 -8 34 11 23 21 25 22 19 5 -4
-11 -14 -26 -22 -32 -18 -15 -16 -18 18 -27 19 -6 21 -5 10 3 -13 9 -12 11 4
11 15 0 16 3 7 14 -9 10 -9 16 -1 21 6 4 9 14 6 24 -4 9 2 7 14 -8 26 -30 25
-35 -10 -71 -36 -36 -37 -48 -8 -52 12 -2 23 -9 26 -16 2 -7 -2 -10 -12 -6
-17 7 -36 -9 -53 -46 l-12 -25 0 25 c-2 34 -18 59 -29 43 -10 -16 -51 -13 -45
3 2 6 17 14 33 17 37 8 32 41 -7 44 -19 1 -22 -1 -12 -8 10 -6 11 -9 1 -9 -7
0 -17 -11 -22 -24 -5 -14 -19 -30 -30 -36 -21 -11 -21 -11 -3 16 10 16 12 25
5 20 -7 -4 -19 -1 -28 8 -17 17 -44 21 -44 7 0 -5 12 -12 26 -15 18 -5 24 -12
20 -22 -3 -9 -6 -20 -6 -25 0 -5 -6 -4 -14 3 -8 7 -12 16 -10 20 2 4 0 9 -6
13 -5 3 -10 1 -10 -6 0 -9 -3 -9 -14 1 -8 6 -13 17 -10 25 7 18 -16 31 -27 14
-4 -7 -11 -10 -16 -6 -4 4 -2 16 4 27 10 15 9 19 -5 25 -10 4 -21 0 -26 -8 -8
-13 -12 -11 -23 11 -9 17 -10 28 -3 32 6 4 12 15 15 26 2 10 7 29 11 41 5 18
3 21 -16 16 -17 -4 -20 -11 -16 -29 4 -14 2 -24 -4 -24 -5 0 -10 4 -10 10 0 5
-6 7 -14 4 -17 -6 -33 15 -18 25 5 3 11 15 13 26 3 13 14 21 32 23 28 3 39 34
17 47 -8 5 -7 11 1 21 14 17 4 48 -13 38 -19 -12 -52 -13 -65 -2 -7 6 -19 8
-27 5 -8 -3 -17 0 -20 8 -3 10 4 13 30 10 19 -2 34 1 34 6 0 9 -97 11 -142 3
-24 -5 -26 -8 -17 -26 6 -11 8 -25 6 -33 -3 -7 1 -22 9 -34 9 -12 13 -30 9
-40 -4 -14 0 -23 15 -31 11 -6 18 -15 15 -19 -3 -5 2 -11 9 -14 8 -3 14 -15
13 -26 -1 -20 -17 -19 -17 2 -1 19 -37 57 -54 57 -10 0 -16 9 -17 23 -1 16 -2
18 -6 5 -8 -31 -21 -20 -21 17 0 21 5 35 12 35 18 0 5 72 -13 78 -10 3 -12 -1
-8 -17 3 -15 1 -21 -10 -21 -11 0 -14 -7 -9 -24 3 -14 2 -28 -4 -31 -5 -3 -10
-2 -10 4 0 12 -47 61 -59 61 -5 0 -11 9 -14 20 -5 21 -31 27 -42 10 -3 -5 4
-10 16 -10 17 0 19 -3 10 -14 -9 -11 -9 -16 0 -22 8 -4 9 -3 5 4 -4 7 -2 12 4
12 6 0 15 -11 20 -25 5 -14 17 -28 25 -31 8 -4 15 -13 15 -21 0 -11 -7 -13
-25 -9 -19 5 -25 2 -25 -10 0 -8 -6 -14 -12 -11 -7 2 -12 14 -11 26 2 11 -2
21 -7 21 -6 0 -10 -11 -10 -25 0 -26 -15 -34 -23 -12 -3 9 -7 9 -19 -1 -13
-10 -17 -10 -22 0 -3 7 -3 -4 0 -24 5 -30 3 -39 -10 -44 -11 -4 -22 1 -31 12
-12 16 -12 19 1 22 8 2 14 8 14 14 0 5 -7 8 -15 5 -8 -4 -17 -2 -20 3 -4 6
-11 10 -16 10 -6 0 -8 -4 -4 -9 3 -6 -4 -15 -16 -22 -17 -9 -19 -13 -8 -20 7
-4 10 -11 6 -15 -4 -4 -2 -13 3 -19 8 -9 5 -14 -9 -18 -16 -4 -18 0 -15 20 3
15 1 22 -6 18 -6 -4 -10 6 -10 25 0 18 -4 29 -10 25 -5 -3 -10 1 -10 9 0 9 -9
16 -20 16 -11 0 -24 8 -28 18 -7 18 -43 27 -39 10 1 -6 -4 -13 -11 -15 -8 -3
-10 1 -6 11 3 9 1 16 -6 16 -6 0 -8 5 -5 10 9 15 -16 12 -49 -5 -24 -13 -27
-13 -22 0 3 8 1 17 -4 20 -6 4 -10 -4 -10 -15 0 -16 -5 -20 -15 -16 -8 3 -15
1 -15 -4 0 -6 -5 -10 -11 -10 -6 0 -8 7 -5 16 3 8 2 12 -4 9 -6 -3 -10 3 -10
13 0 11 -9 22 -19 25 -14 3 -18 1 -14 -9 4 -12 1 -13 -20 -3 -27 12 -57 7 -57
-11 0 -5 7 -10 16 -10 17 0 44 -23 44 -37 -1 -12 -50 -46 -57 -39 -4 3 -1 6 5
6 7 0 12 9 12 20 0 13 -5 18 -15 14 -9 -4 -15 0 -16 7 -1 8 -2 20 -3 28 -2 23
-26 25 -26 2 0 -12 -4 -21 -10 -21 -5 0 -10 9 -10 20 0 10 -9 24 -19 30 -23
12 -68 13 -75 2 -10 -16 -64 -12 -87 8 -17 14 -20 20 -9 20 10 1 8 4 -5 9 -28
12 -38 3 -20 -15 8 -9 13 -20 9 -25 -3 -6 0 -17 7 -25 10 -12 8 -17 -7 -28
-10 -8 -21 -10 -24 -6 -9 14 -50 0 -50 -17 0 -8 -4 -11 -10 -8 -14 9 10 43 36
49 25 7 41 36 19 36 -7 0 -16 -8 -18 -17 -4 -15 -5 -15 -6 -2 -1 11 -10 17
-26 17 -20 0 -24 -4 -20 -19 5 -14 1 -19 -14 -19 -19 0 -26 11 -22 33 1 5 -3
6 -8 2 -6 -3 -8 -12 -4 -20 3 -8 1 -15 -5 -15 -6 0 -12 5 -14 11 -2 7 -12 7
-30 0 -26 -10 -26 -9 -16 20 5 16 17 29 25 29 8 0 12 -4 8 -9 -3 -5 -1 -12 5
-16 5 -3 10 -1 10 4 0 6 9 11 21 11 11 0 17 5 14 10 -4 6 6 10 22 10 25 1 26
2 10 11 -27 16 -154 1 -161 -18 -4 -10 -15 -13 -37 -9 -17 2 -42 0 -56 -5 -18
-7 -24 -6 -21 3 3 7 15 15 29 19 50 13 -11 18 -298 22 -193 3 -293 1 -293 -5
0 -7 -5 -6 -13 1 -21 17 -272 37 -534 43 -79 2 -143 6 -143 11 0 12 -65 8 -78
-5 -9 -9 -12 -9 -12 0 0 6 -7 9 -16 5 -9 -3 -19 0 -24 7 -4 7 -32 13 -66 14
l-59 1 3 -42 3 -42 -34 6 c-28 4 -36 1 -50 -21 -10 -14 -24 -26 -33 -26 -14 0
-14 2 0 16 16 15 13 39 -4 29 -5 -3 -11 -1 -15 5 -4 6 5 10 21 10 22 0 25 3
16 12 -7 7 -12 23 -13 38 l-1 25 -11 -28 c-9 -23 -16 -27 -42 -25 -24 2 -30 7
-28 26 2 16 -2 22 -17 22 -16 0 -20 -7 -20 -30z"/>
<path d="M6501 1139 c-32 -17 -36 -17 -53 -2 -16 14 -25 15 -69 5 -28 -7 -93
-12 -145 -12 -54 0 -94 -4 -94 -10 0 -5 8 -7 18 -3 13 5 14 3 5 -7 -6 -7 -9
-20 -6 -29 6 -14 4 -14 -14 2 -23 20 -42 21 -65 3 -11 -8 -15 -20 -12 -33 3
-11 1 -24 -5 -27 -7 -5 -11 4 -11 25 0 18 -3 29 -7 26 -3 -4 -13 -1 -21 6 -13
10 -14 9 -3 -11 8 -15 9 -28 2 -40 -9 -15 -10 -15 -11 4 0 27 -25 48 -45 40
-13 -5 -14 -8 -3 -20 7 -8 17 -11 22 -8 5 3 6 0 2 -6 -4 -7 2 -22 13 -34 18
-19 25 -20 54 -11 28 8 36 7 45 -6 10 -15 13 -14 26 2 8 11 17 14 20 8 9 -14
56 8 56 26 0 7 5 13 10 13 6 0 10 -5 10 -11 0 -6 9 -9 19 -6 14 3 18 1 14 -9
-3 -8 -9 -11 -14 -8 -5 3 -4 -6 3 -20 14 -33 28 -33 28 -1 0 14 4 25 9 25 4 0
6 11 3 25 -5 27 7 32 26 13 7 -7 12 -8 12 -2 0 6 -5 15 -12 22 -9 9 -8 12 6
12 15 0 16 3 6 15 -7 9 -11 17 -9 19 12 10 99 12 109 2 8 -8 9 -6 4 9 -6 18
-5 19 9 5 16 -15 14 -60 -3 -60 -4 0 -7 -15 -5 -34 3 -26 -3 -40 -21 -57 -13
-12 -24 -31 -24 -41 0 -10 -4 -18 -9 -18 -5 0 -17 -3 -27 -7 -13 -5 -16 -3
-12 9 4 8 1 15 -7 15 -7 0 -12 -8 -10 -19 4 -19 -19 -25 -30 -8 -3 6 0 10 7
10 7 0 -6 9 -30 20 -34 16 -47 17 -67 8 -34 -15 -31 -25 5 -20 39 6 41 -18 4
-47 -31 -25 -19 -28 15 -5 23 16 23 16 11 -5 -10 -19 -9 -22 7 -19 14 2 18 -4
18 -29 0 -41 10 -50 25 -23 7 13 8 25 4 29 -15 10 -16 34 -2 42 19 13 28 11
28 -6 0 -8 12 -18 26 -21 21 -5 24 -11 20 -30 -7 -25 8 -34 17 -11 3 7 6 5 6
-5 1 -10 6 -18 11 -18 14 0 12 24 -2 39 -7 6 -13 25 -13 41 0 27 3 29 30 26
50 -7 66 -17 72 -47 7 -38 23 -27 23 17 0 19 5 34 10 34 6 0 10 -7 10 -15 0
-8 6 -15 13 -16 6 0 20 -2 30 -4 9 -2 15 1 11 6 -3 5 -10 6 -16 3 -7 -5 -9 2
-4 22 10 41 9 65 -3 77 -8 8 -14 8 -21 1 -8 -8 -6 -15 5 -24 15 -13 21 -40 8
-40 -36 1 -53 73 -23 97 13 10 11 11 -7 6 -26 -6 -28 1 -12 46 11 32 29 42 29
16 0 -8 9 -15 20 -15 19 0 24 -10 21 -37 -1 -7 2 -13 7 -13 4 0 9 23 9 52 1
37 -2 47 -9 35 -13 -24 -27 -21 -21 4 5 19 3 21 -25 17 -18 -2 -32 -1 -32 4 0
4 6 8 14 8 12 0 31 29 24 35 -2 2 -19 -6 -37 -16z"/>
</g>
</svg>
