<?xml version="1.0" standalone="no"?>
<!DOCTYPE svg PUBLIC "-//W3C//DTD SVG 20010904//EN"
 "http://www.w3.org/TR/2001/REC-SVG-20010904/DTD/svg10.dtd">
<svg version="1.0" xmlns="http://www.w3.org/2000/svg"
 width="128.000000pt" height="128.000000pt" viewBox="0 0 128.000000 128.000000"
 preserveAspectRatio="xMidYMid meet">
<metadata>
Created by potrace 1.16, written by Peter Selinger 2001-2019
</metadata>
<g transform="translate(0.000000,128.000000) scale(0.100000,-0.100000)"
fill="#000000" stroke="none">
<path d="M410 1264 c-62 -22 -105 -56 -136 -110 -22 -37 -27 -58 -27 -113 0
-37 5 -76 12 -88 6 -12 11 -51 11 -88 0 -74 30 -148 75 -183 25 -20 25 -21 9
-55 -15 -32 -21 -35 -75 -41 -125 -14 -200 -62 -248 -156 l-31 -63 0 -184 0
-183 500 0 500 0 0 169 c0 130 -4 180 -17 220 -34 106 -137 183 -260 197 -56
6 -65 10 -81 37 l-17 31 42 39 c54 50 70 100 78 254 9 157 -4 203 -75 266 -73
66 -165 83 -260 51z m200 -63 c46 -27 81 -78 95 -136 l7 -30 -29 26 c-105 98
-282 104 -363 13 -25 -29 -30 -31 -30 -15 0 52 47 118 105 149 73 38 144 36
215 -7z m-15 -136 c30 -15 60 -39 75 -62 22 -32 25 -47 24 -114 -1 -68 -5 -85
-30 -125 -84 -136 -277 -120 -339 28 -17 43 -20 136 -5 190 13 45 60 94 103
107 46 14 114 5 172 -24z m-70 -438 c58 2 62 1 79 -27 19 -34 21 -30 -52 -127
l-54 -73 -63 83 -62 82 21 37 c18 32 24 36 46 30 14 -4 52 -6 85 -5z m-115
-187 c41 -55 80 -100 87 -100 6 0 47 45 89 100 75 97 78 100 117 100 64 0 116
-21 167 -67 71 -64 83 -100 88 -281 l4 -152 -76 0 -76 0 0 125 c0 118 -1 125
-20 125 -19 0 -20 -7 -20 -125 l0 -125 -270 0 -269 0 -3 122 c-3 119 -4 123
-25 126 -23 3 -23 2 -23 -122 l0 -126 -70 0 -70 0 0 143 c0 78 5 159 10 179
27 96 135 178 234 178 l52 0 74 -100z"/>
<path d="M954 1024 c-153 -56 -204 -259 -96 -384 50 -59 103 -84 183 -84 87 0
160 39 204 109 27 44 30 56 30 136 0 81 -2 90 -30 130 -64 91 -189 131 -291
93z m143 -39 c127 -38 182 -191 107 -298 -103 -146 -321 -97 -359 80 -14 68
34 167 98 200 69 35 89 37 154 18z"/>
<path d="M1068 823 l-67 -67 -29 27 c-32 31 -50 34 -59 11 -7 -18 63 -94 87
-94 21 0 170 151 170 173 0 34 -36 16 -102 -50z"/>
</g>
</svg>
