<?xml version="1.0" standalone="no"?>
<!DOCTYPE svg PUBLIC "-//W3C//DTD SVG 20010904//EN"
 "http://www.w3.org/TR/2001/REC-SVG-20010904/DTD/svg10.dtd">
<svg version="1.0" xmlns="http://www.w3.org/2000/svg"
 width="758.000000pt" height="71.000000pt" viewBox="0 0 758.000000 71.000000"
 preserveAspectRatio="xMidYMid meet">
<metadata>
Created by potrace 1.16, written by Peter Selinger 2001-2019
</metadata>
<g transform="translate(0.000000,71.000000) scale(0.100000,-0.100000)"
fill="#000000" stroke="none">
<path d="M1798 355 l2 -355 205 0 205 0 2 355 3 355 -210 0 -210 0 3 -355z"/>
<path d="M2388 355 l2 -355 105 0 105 0 2 328 c0 180 1 334 0 343 -2 24 35 27
241 25 97 -2 177 1 177 6 0 4 -143 8 -317 8 l-318 0 3 -355z"/>
<path d="M3170 355 l0 -355 230 0 230 0 0 355 0 355 -230 0 -230 0 0 -355z"/>
<path d="M3838 355 l2 -355 340 0 340 0 0 355 0 355 -342 0 -343 0 3 -355z"/>
<path d="M4650 355 l0 -355 180 0 180 0 2 355 3 355 -182 0 -183 0 0 -355z"/>
<path d="M5218 355 l2 -355 290 0 290 0 0 350 0 350 96 0 96 0 -2 -27 c-1 -16
-2 -173 -1 -350 l1 -323 375 0 375 0 2 355 3 355 -765 0 -765 0 3 -355z"/>
<path d="M6948 355 l2 -355 135 0 135 0 0 355 0 355 -137 0 -138 0 3 -355z"/>
<path d="M7330 355 l0 -355 125 0 125 0 0 355 0 355 -125 0 -125 0 0 -355z"/>
<path d="M2633 666 c-10 -11 -9 -15 2 -20 13 -5 15 -55 15 -326 0 -212 3 -320
10 -320 7 0 10 105 10 315 -1 173 1 319 5 325 3 5 1 10 -5 10 -6 0 -8 5 -5 11
4 5 14 9 23 7 13 -2 16 -13 14 -45 -2 -22 1 -44 7 -48 7 -4 11 7 11 29 l0 36
120 0 120 0 0 -320 c0 -194 4 -320 9 -320 6 0 12 117 15 287 2 159 6 312 9
341 2 28 0 52 -5 52 -4 0 -8 -7 -8 -15 0 -8 -5 -15 -11 -15 -6 0 -9 7 -5 15 5
13 -17 15 -157 15 -124 -1 -165 -4 -174 -14z"/>
</g>
</svg>
