<?xml version="1.0" standalone="no"?>
<!DOCTYPE svg PUBLIC "-//W3C//DTD SVG 20010904//EN"
 "http://www.w3.org/TR/2001/REC-SVG-20010904/DTD/svg10.dtd">
<svg version="1.0" xmlns="http://www.w3.org/2000/svg"
 width="64.000000pt" height="64.000000pt" viewBox="0 0 64.000000 64.000000"
 preserveAspectRatio="xMidYMid meet">
<metadata>
Created by potrace 1.16, written by Peter Selinger 2001-2019
</metadata>
<g transform="translate(0.000000,64.000000) scale(0.100000,-0.100000)"
fill="#000000" stroke="none">
<path d="M12 548 c-17 -17 -17 -439 0 -456 7 -7 25 -12 40 -12 l28 0 0 185 c0
102 3 185 6 185 3 0 54 -38 115 -85 60 -47 113 -85 119 -85 6 0 59 38 119 85
61 47 112 85 115 85 3 0 6 -83 6 -185 l0 -185 28 0 c15 0 33 5 40 12 17 17 17
439 0 456 -28 28 -63 12 -183 -83 -66 -52 -122 -95 -125 -95 -3 0 -59 43 -125
95 -120 95 -155 111 -183 83z"/>
</g>
</svg>
