<?xml version="1.0" standalone="no"?>
<!DOCTYPE svg PUBLIC "-//W3C//DTD SVG 20010904//EN"
 "http://www.w3.org/TR/2001/REC-SVG-20010904/DTD/svg10.dtd">
<svg version="1.0" xmlns="http://www.w3.org/2000/svg"
 width="150.000000pt" height="149.000000pt" viewBox="0 0 150.000000 149.000000"
 preserveAspectRatio="xMidYMid meet">

<g transform="translate(0.000000,149.000000) scale(0.100000,-0.100000)"
fill="#000000" stroke="none">
<path d="M210 1355 l0 -105 83 0 c46 0 125 3 175 6 82 6 89 8 80 24 -15 23 -3
50 22 50 15 0 20 -7 20 -29 0 -16 -6 -32 -12 -34 -7 -3 1 -6 19 -6 31 -1 31 0
23 30 -10 34 -5 53 11 44 5 -4 6 -17 3 -31 -4 -15 -2 -24 6 -24 6 0 8 -4 5
-10 -3 -5 3 -10 14 -10 18 0 19 3 10 19 -16 24 -5 51 21 51 15 0 20 -7 20 -29
0 -16 -6 -32 -12 -34 -7 -3 3 -6 21 -6 27 -1 32 2 23 11 -17 17 -15 47 3 54
40 16 4 24 -108 24 l-123 0 4 -40 c3 -25 0 -40 -7 -40 -6 0 -11 7 -11 16 0 15
-2 15 -26 -1 l-26 -17 4 41 4 41 -86 2 c-80 1 -82 2 -30 8 30 4 50 7 44 8 -20
3 -26 35 -10 50 8 8 22 12 30 9 19 -7 21 -38 4 -55 -9 -9 -4 -12 22 -12 26 0
31 3 22 12 -14 14 -16 78 -2 78 6 0 10 -13 10 -29 0 -43 10 -61 33 -61 16 0
18 3 9 12 -17 17 -15 48 4 55 8 3 23 -2 32 -11 14 -13 14 -20 4 -36 -11 -19
-10 -20 35 -20 l48 0 -3 45 c-4 40 -2 45 17 45 25 0 28 -17 4 -23 -17 -4 -17
-5 0 -6 21 -1 23 -21 2 -21 -8 0 -15 -4 -15 -10 0 -5 9 -10 21 -10 11 0 17 -4
14 -10 -3 -5 3 -10 15 -10 18 0 19 3 9 21 -9 18 -7 25 15 45 14 13 28 24 31
24 3 0 5 -18 5 -39 0 -29 -5 -41 -17 -44 -10 -3 -1 -5 20 -6 34 -1 36 1 26 18
-8 11 -9 26 -4 37 8 17 9 16 13 -8 2 -16 8 -28 13 -28 5 0 10 12 10 28 l1 27
7 -30 c5 -22 3 -32 -9 -37 -9 -4 1 -7 23 -7 34 -1 36 1 26 18 -7 10 -9 26 -6
35 7 17 37 22 37 6 0 -5 -7 -10 -15 -10 -19 0 -19 -19 0 -26 8 -4 12 -10 9
-15 -3 -5 6 -9 20 -9 23 0 25 2 15 19 -16 24 -5 51 20 51 25 0 36 -57 12 -63
-9 -3 2 -5 23 -6 31 -1 37 2 28 11 -16 16 -16 71 1 65 6 -2 11 -16 9 -31 -1
-14 2 -26 8 -26 6 0 8 -4 5 -10 -4 -6 22 -10 69 -10 73 0 76 1 64 20 -10 16
-10 23 4 36 9 9 24 14 32 11 18 -7 21 -42 5 -53 -8 -4 -7 -9 2 -15 8 -5 -76
-9 -198 -9 l-213 0 0 -39 c0 -22 -5 -42 -13 -44 -6 -3 4 -6 22 -6 27 -1 32 2
23 11 -28 28 -5 71 24 47 14 -12 14 -14 -2 -26 -10 -8 -13 -13 -5 -13 7 0 9
-4 6 -10 -4 -6 13 -10 44 -10 47 0 50 1 40 19 -15 22 -5 51 16 51 21 0 31 -29
16 -51 -10 -17 -8 -19 15 -19 14 0 23 4 19 10 -3 6 -1 10 6 10 9 0 9 4 -1 15
-12 15 -6 35 12 35 5 0 8 -6 5 -14 -3 -8 -1 -17 6 -19 9 -3 9 -7 -1 -19 -19
-24 3 -28 144 -28 l124 0 0 105 0 105 -535 0 -535 0 0 -105z m130 80 c11 -13
8 -19 -14 -40 l-26 -24 0 39 c0 43 17 53 40 25z m707 -47 c-2 -13 -4 -3 -4 22
0 25 2 35 4 23 2 -13 2 -33 0 -45z m68 28 c8 10 15 16 15 12 0 -13 -23 -58
-30 -58 -7 0 -30 45 -30 58 0 4 7 -2 15 -12 15 -20 15 -20 30 0z m-223 -98
c-5 -7 -12 -22 -15 -33 -3 -13 -5 -9 -6 13 -1 23 3 32 15 32 12 0 14 -3 6 -12z"/>
<path d="M310 1420 c0 -5 5 -10 10 -10 6 0 10 5 10 10 0 6 -4 10 -10 10 -5 0
-10 -4 -10 -10z"/>
<path d="M50 1403 c0 -5 13 -28 30 -53 l29 -44 -21 -36 c-12 -19 -25 -39 -30
-44 -4 -6 -8 -16 -8 -23 0 -11 24 -13 113 -11 104 3 112 4 112 23 0 17 -7 20
-40 20 l-40 0 -3 88 -3 87 -69 0 c-39 0 -70 -3 -70 -7z"/>
<path d="M382 1399 c2 -6 8 -10 13 -10 5 0 11 4 13 10 2 6 -4 11 -13 11 -9 0
-15 -5 -13 -11z"/>
<path d="M510 1395 c0 -8 5 -15 10 -15 6 0 10 7 10 15 0 8 -4 15 -10 15 -5 0
-10 -7 -10 -15z"/>
<path d="M700 1395 c0 -8 5 -15 10 -15 6 0 10 7 10 15 0 8 -4 15 -10 15 -5 0
-10 -7 -10 -15z"/>
<path d="M912 1399 c2 -6 8 -10 13 -10 5 0 11 4 13 10 2 6 -4 11 -13 11 -9 0
-15 -5 -13 -11z"/>
<path d="M1160 1395 c0 -8 5 -15 10 -15 6 0 10 7 10 15 0 8 -4 15 -10 15 -5 0
-10 -7 -10 -15z"/>
<path d="M1310 1326 l0 -85 -42 -3 c-36 -2 -44 -7 -46 -25 -3 -23 -2 -23 112
-23 64 0 116 3 116 7 0 3 -18 29 -39 58 l-39 52 39 51 40 52 -71 0 -70 0 0
-84z"/>
<path d="M474 1334 c3 -9 6 -19 6 -22 0 -9 20 21 20 31 0 4 -7 7 -16 7 -11 0
-14 -5 -10 -16z"/>
<path d="M554 1309 c-3 -6 -1 -16 5 -22 8 -8 11 -5 11 11 0 24 -5 28 -16 11z"/>
<path d="M670 1301 c0 -6 5 -13 10 -16 6 -3 10 1 10 9 0 9 -4 16 -10 16 -5 0
-10 -4 -10 -9z"/>
<path d="M740 1301 c0 -6 5 -13 10 -16 6 -3 10 1 10 9 0 9 -4 16 -10 16 -5 0
-10 -4 -10 -9z"/>
<path d="M922 1299 c2 -6 8 -10 13 -10 5 0 11 4 13 10 2 6 -4 11 -13 11 -9 0
-15 -5 -13 -11z"/>
<path d="M298 1203 c-3 -24 -8 -29 -43 -33 -36 -5 -38 -6 -20 -17 11 -7 14
-13 7 -13 -17 0 -15 -160 1 -160 7 0 7 -4 -1 -12 -18 -18 -15 -51 3 -44 12 4
15 -2 14 -27 -1 -18 -3 -24 -6 -14 -11 41 -18 10 -21 -84 -2 -90 0 -100 13
-89 9 7 15 8 15 2 0 -5 -7 -13 -16 -16 -13 -5 -14 -9 -4 -21 10 -12 10 -15 -1
-15 -12 0 -12 -2 0 -9 10 -6 10 -10 1 -16 -11 -7 -13 -110 -1 -130 10 -18 10
-35 -1 -35 -13 0 -7 -152 7 -162 6 -5 5 -8 -2 -8 -8 0 -13 -14 -13 -36 0 -19
4 -33 9 -29 5 3 12 1 15 -4 3 -5 -1 -11 -8 -14 -9 -4 -14 -18 -14 -36 1 -27 5
-31 47 -40 25 -5 49 -7 53 -5 4 3 8 -1 8 -8 0 -10 2 -10 9 1 7 11 10 11 17 -1
12 -21 147 -54 152 -38 3 7 9 5 17 -6 13 -18 51 -12 40 6 -3 5 0 10 7 9 23 -1
43 -14 46 -29 3 -12 0 -11 -15 2 -18 16 -19 16 -20 -1 -2 -23 52 -37 73 -20
11 9 14 8 14 -5 0 -27 55 -31 153 -11 21 4 37 13 37 21 0 12 4 12 20 2 17 -11
22 -10 29 0 4 8 11 13 15 13 29 -4 46 1 46 15 0 8 -4 12 -10 9 -5 -3 -10 -1
-10 4 0 16 20 13 26 -4 12 -31 41 -14 34 20 -1 5 7 2 17 -7 11 -9 25 -13 37
-9 17 7 17 8 2 24 -16 15 -16 17 -1 17 8 0 18 -7 21 -15 8 -19 34 -19 34 0 0
8 -5 15 -12 15 -6 0 -8 3 -4 7 4 5 14 0 21 -11 15 -20 46 -16 44 6 0 10 -2 10
-6 0 -2 -6 -9 -12 -15 -12 -6 0 -5 6 2 16 12 13 15 13 28 1 10 -11 22 -12 51
-5 l37 9 2 106 c1 88 -1 104 -13 100 -9 -4 -12 -1 -8 9 3 7 8 14 12 14 3 0 8
36 9 81 2 79 2 80 -20 73 -21 -6 -21 -6 -5 10 17 18 14 42 -4 31 -5 -4 -9 1
-9 10 0 9 5 13 11 9 17 -10 29 16 29 64 0 40 -2 43 -21 37 -19 -6 -20 -5 -8 8
8 8 16 14 19 12 3 -2 6 31 8 72 3 73 2 74 -19 68 -22 -7 -22 -7 -2 14 15 16
20 37 21 92 2 68 1 70 -19 64 -19 -6 -20 -5 -8 8 8 8 16 13 19 12 3 -2 6 26 7
61 l2 64 -44 0 c-43 0 -45 1 -45 30 l0 30 -444 0 -445 0 -3 -27z m962 -57 c0
-3 -4 -8 -10 -11 -5 -3 -10 -1 -10 4 0 6 5 11 10 11 6 0 10 -2 10 -4z m-672
-18 c-3 -8 -27 -14 -61 -16 l-57 -3 2 -52 2 -52 3 48 4 47 54 0 c34 0 55 5 58
13 2 6 8 9 12 5 17 -16 -10 -28 -61 -28 l-54 0 0 -40 c0 -39 1 -40 33 -40 34
0 57 -15 57 -37 0 -9 -15 -13 -45 -13 l-45 0 0 -55 0 -54 62 -3 c44 -2 63 -7
65 -18 3 -9 1 -11 -4 -5 -4 6 -44 10 -88 10 l-80 0 -3 153 -3 152 77 0 c56 0
75 -3 72 -12z m472 -7 c0 -6 -17 -11 -37 -13 l-38 -3 -5 -145 -6 -145 -2 148
-2 147 -40 0 c-22 0 -40 5 -40 10 0 6 35 10 85 10 47 0 85 -4 85 -9z m-800
-91 c0 -5 -2 -10 -4 -10 -3 0 -8 5 -11 10 -3 6 -1 10 4 10 6 0 11 -4 11 -10z
m997 -40 c-5 -31 -17 -36 -17 -7 0 15 4 27 10 27 5 0 9 -9 7 -20z m3 -160 c0
-5 -2 -10 -4 -10 -3 0 -8 5 -11 10 -3 6 -1 10 4 10 6 0 11 -4 11 -10z m-427
-14 c87 -37 128 -135 93 -221 l-15 -35 -69 0 c-79 0 -97 15 -59 50 12 12 23
16 25 10 2 -5 10 -10 18 -10 10 0 11 6 4 26 -13 34 -3 79 15 64 9 -8 14 -6 19
6 8 20 1 31 -32 48 -23 12 -29 12 -40 0 -12 -13 -10 -14 12 -8 16 4 26 2 26
-5 0 -6 -4 -11 -9 -11 -5 0 -11 -10 -14 -22 -5 -16 -9 -19 -19 -11 -21 16 -76
24 -84 11 -5 -7 -12 -5 -21 8 -12 16 -13 11 -8 -41 3 -32 7 -60 8 -61 1 -1 14
-5 30 -9 32 -8 35 4 7 30 -26 24 -25 35 3 35 34 0 67 -11 67 -22 0 -6 -9 -8
-20 -5 -14 3 -19 0 -18 -12 1 -9 0 -29 0 -44 l-2 -28 -72 3 -73 3 -13 40 c-27
82 15 177 93 211 39 17 108 17 148 0z m437 -10 c0 -2 -7 -6 -15 -10 -8 -3 -15
-1 -15 4 0 6 7 10 15 10 8 0 15 -2 15 -4z m0 -65 c0 -4 -7 -8 -15 -8 -8 0 -15
6 -15 13 0 8 6 11 15 8 8 -4 15 -9 15 -13z m-10 -71 c0 -5 -2 -10 -4 -10 -3 0
-8 5 -11 10 -3 6 -1 10 4 10 6 0 11 -4 11 -10z m10 -24 c0 -2 -7 -6 -15 -10
-8 -3 -15 -1 -15 4 0 6 7 10 15 10 8 0 15 -2 15 -4z m-695 -48 c13 -42 58 -90
101 -110 l44 -19 0 -179 c0 -139 -3 -178 -12 -175 -7 3 -89 25 -183 50 -93 25
-178 48 -187 51 -16 5 -18 24 -18 205 l0 199 124 0 c121 0 125 -1 131 -22z
m613 -179 l-3 -202 -200 -53 c-110 -30 -203 -54 -207 -54 -5 0 -8 81 -8 180
l0 179 40 11 c49 13 108 63 127 107 l13 33 120 0 120 0 -2 -201z m-923 181 c3
-5 1 -10 -4 -10 -6 0 -11 5 -11 10 0 6 2 10 4 10 3 0 8 -4 11 -10z m2 -50 c-1
-11 -7 -20 -14 -20 -11 0 -11 4 -1 20 7 11 14 20 15 20 1 0 1 -9 0 -20z m993
-40 c0 -5 -2 -10 -4 -10 -3 0 -8 5 -11 10 -3 6 -1 10 4 10 6 0 11 -4 11 -10z
m0 -24 c0 -3 -4 -8 -10 -11 -5 -3 -10 -1 -10 4 0 6 5 11 10 11 6 0 10 -2 10
-4z m-990 -57 c0 -5 -4 -9 -10 -9 -5 0 -10 7 -10 16 0 8 5 12 10 9 6 -3 10
-10 10 -16z m-5 -59 c3 -5 -1 -10 -10 -10 -9 0 -13 5 -10 10 3 6 8 10 10 10 2
0 7 -4 10 -10z m1005 -55 c0 -2 -7 -8 -15 -15 -12 -10 -15 -10 -15 2 0 8 7 15
15 15 8 0 15 -1 15 -2z m-1005 -55 c3 -5 1 -10 -4 -10 -6 0 -11 5 -11 10 0 6
2 10 4 10 3 0 8 -4 11 -10z m1005 -24 c0 -2 -7 -9 -15 -16 -12 -10 -15 -10
-15 4 0 9 7 16 15 16 8 0 15 -2 15 -4z m-23 -72 c-2 -2 -12 -1 -22 3 -18 6
-18 7 1 13 17 7 33 -5 21 -16z m-941 7 c6 -1 11 -8 11 -16 0 -13 -2 -13 -17 0
-13 11 -19 12 -28 3 -9 -9 -12 -8 -12 4 0 10 7 15 18 13 9 -2 22 -4 28 -4z
m184 -61 c11 -11 17 -20 13 -20 -11 1 -43 26 -43 34 0 11 9 7 30 -14z m449
-19 c7 -5 9 -11 5 -14 -5 -3 -15 1 -22 9 -14 16 -5 18 17 5z m-119 -31 c0 -5
-4 -10 -10 -10 -5 0 -10 5 -10 10 0 6 5 10 10 10 6 0 10 -4 10 -10z m-75 -10
c3 -6 -1 -7 -9 -4 -18 7 -21 14 -7 14 6 0 13 -4 16 -10z"/>
<path d="M518 983 l-48 -4 2 -62 2 -62 3 58 4 57 44 0 c25 0 45 5 45 10 0 6
-1 9 -2 8 -2 -1 -24 -3 -50 -5z"/>
<path d="M460 540 c0 -5 5 -10 11 -10 5 0 7 5 4 10 -3 6 -8 10 -11 10 -2 0 -4
-4 -4 -10z"/>
<path d="M528 540 c30 -13 38 -36 24 -74 -10 -28 -10 -29 3 -12 31 41 13 97
-29 95 -20 0 -20 -1 2 -9z"/>
<path d="M501 375 c-16 -27 -27 -35 -49 -35 -36 0 -63 -27 -41 -41 19 -12 230
-11 249 1 12 7 12 12 2 22 -8 8 -38 11 -92 9 -44 -1 -80 0 -80 3 0 2 9 21 21
40 12 20 19 36 16 36 -3 0 -14 -16 -26 -35z m87 -62 c-21 -2 -55 -2 -75 0 -21
2 -4 4 37 4 41 0 58 -2 38 -4z"/>
<path d="M962 553 c-7 -2 -17 -14 -24 -26 -10 -21 -10 -21 8 -5 11 9 31 21 44
27 21 8 22 10 5 10 -11 -1 -26 -3 -33 -6z"/>
<path d="M1086 426 c-14 -72 -71 -110 -125 -83 -22 11 -35 12 -61 3 -44 -15
-48 -32 -9 -40 40 -8 197 -8 227 0 30 8 23 26 -14 39 -38 12 -39 12 -26 27 11
14 28 88 19 88 -3 0 -8 -15 -11 -34z"/>
</g>
</svg>
