<?xml version="1.0" standalone="no"?>
<!DOCTYPE svg PUBLIC "-//W3C//DTD SVG 20010904//EN"
 "http://www.w3.org/TR/2001/REC-SVG-20010904/DTD/svg10.dtd">
<svg version="1.0" xmlns="http://www.w3.org/2000/svg"
 width="250.000000pt" height="252.000000pt" viewBox="0 0 250.000000 252.000000"
 preserveAspectRatio="xMidYMid meet">

<g transform="translate(0.000000,252.000000) scale(0.100000,-0.100000)"
fill="#000000" stroke="none">
<path d="M634 2271 c-56 -4 -98 -12 -108 -20 -15 -13 -19 -13 -26 -1 -7 12
-12 11 -29 -4 -11 -10 -23 -27 -26 -36 -3 -11 -20 -21 -40 -24 -37 -7 -48 -26
-15 -26 19 0 19 0 -1 -35 -17 -28 -19 -44 -14 -89 6 -47 12 -59 41 -81 32 -25
33 -25 44 -6 5 11 10 34 10 51 0 18 7 44 16 59 l16 28 36 -19 c46 -23 66 -23
60 0 -4 16 2 17 67 11 97 -8 140 -34 148 -90 7 -51 10 -54 39 -35 14 9 27 13
31 10 19 -19 29 181 14 259 -7 32 -11 37 -25 31 -9 -4 -48 -10 -85 -12 -66 -4
-69 -3 -62 17 3 12 5 20 3 19 -2 -1 -44 -4 -94 -7z"/>
<path d="M1754 2241 c-74 -34 -135 -112 -155 -198 -6 -27 -4 -33 10 -33 19 0
41 -18 41 -34 0 -5 -9 -1 -19 8 -11 10 -25 15 -30 11 -17 -10 -13 -40 7 -58
19 -17 47 -24 38 -9 -2 4 6 30 20 57 13 28 24 58 24 68 0 9 7 17 15 17 8 0 15
9 15 20 0 24 -2 24 51 0 53 -23 114 -27 106 -6 -5 12 2 12 46 0 29 -8 61 -14
72 -14 16 0 24 -11 35 -47 7 -27 15 -52 16 -58 1 -5 3 -14 4 -20 1 -5 2 -13 1
-17 -2 -12 24 -9 37 4 13 13 16 50 6 61 -4 3 -15 2 -25 -4 -12 -6 -19 -6 -19
0 0 5 10 13 22 17 15 4 26 1 36 -12 13 -17 14 -15 8 26 -22 144 -126 240 -260
240 -38 0 -77 -8 -102 -19z"/>
<path d="M1743 2043 c-13 -8 -23 -20 -23 -26 0 -5 8 -3 18 5 9 9 31 20 47 26
28 10 29 10 5 11 -14 0 -35 -7 -47 -16z"/>
<path d="M1933 2046 c20 -8 45 -19 55 -26 9 -7 4 -1 -11 14 -16 15 -39 26 -55
26 -24 -1 -23 -2 11 -14z"/>
<path d="M526 2009 c-41 -32 -31 -39 21 -13 59 30 62 34 31 34 -14 0 -37 -9
-52 -21z"/>
<path d="M690 2020 c0 -5 6 -10 13 -10 7 0 30 -9 50 -19 33 -17 36 -17 25 -3
-22 29 -42 41 -65 42 -13 0 -23 -4 -23 -10z"/>
<path d="M1757 2004 c-4 -4 -7 -12 -7 -18 0 -6 4 -6 12 2 8 8 17 8 31 1 15 -9
18 -8 15 3 -5 14 -40 23 -51 12z"/>
<path d="M1919 1993 c-13 -15 -12 -15 6 -5 15 7 26 7 40 -1 18 -9 19 -9 6 6
-17 22 -35 22 -52 0z"/>
<path d="M545 1971 c-8 -15 3 -31 21 -31 9 0 14 7 12 17 -4 20 -24 28 -33 14z"/>
<path d="M705 1971 c-8 -15 3 -31 21 -31 9 0 14 7 12 17 -4 20 -24 28 -33 14z"/>
<path d="M1864 1923 c0 -29 4 -53 8 -53 14 0 15 16 3 60 l-12 45 1 -52z"/>
<path d="M640 1940 c0 -14 7 -36 16 -48 13 -19 14 -26 2 -40 -12 -15 -11 -16
5 -3 11 9 15 20 11 30 -4 9 -13 32 -20 51 -12 31 -13 32 -14 10z"/>
<path d="M380 1926 c0 -14 9 -31 22 -41 21 -14 23 -14 29 2 8 22 -12 57 -35
61 -11 3 -16 -4 -16 -22z"/>
<path d="M846 1934 c-17 -17 -18 -20 -8 -47 7 -16 9 -16 30 -2 25 18 31 65 8
65 -8 0 -22 -7 -30 -16z"/>
<path d="M2097 1925 c-10 -14 -26 -25 -35 -25 -11 0 -23 -13 -30 -32 -14 -38
-35 -64 -76 -96 -75 -58 -173 -45 -244 32 -23 25 -44 55 -47 68 -7 26 -74 55
-80 34 -6 -21 -27 -317 -23 -321 7 -8 198 71 219 91 10 9 19 24 19 33 0 13 12
16 60 16 49 1 60 -2 60 -16 0 -27 33 -48 145 -94 100 -41 106 -42 102 -22 -3
12 -13 97 -23 190 -10 92 -21 167 -24 167 -3 0 -13 -12 -23 -25z"/>
<path d="M1893 1843 c-18 -12 -29 -13 -55 -4 -30 10 -31 9 -14 -4 27 -21 60
-19 81 5 21 24 18 25 -12 3z"/>
<path d="M686 1815 c-24 -18 -67 -19 -86 -2 -12 10 -12 9 -1 -5 18 -25 73 -23
96 2 21 23 18 25 -9 5z"/>
<path d="M700 1709 c-14 -6 -52 -9 -85 -7 -56 4 -58 4 -30 -8 17 -7 40 -13 53
-14 24 0 92 25 92 34 0 7 1 7 -30 -5z"/>
<path d="M475 1579 c-106 -41 -147 -64 -161 -90 -13 -26 -12 -29 14 -47 120
-85 283 -120 424 -91 68 14 186 70 217 103 l24 25 -30 28 c-17 15 -70 43 -118
60 l-88 33 -34 -30 c-50 -44 -130 -37 -172 14 -16 19 -13 19 -76 -5z"/>
<path d="M422 982 c-24 -51 -37 -94 -39 -131 -4 -51 -1 -58 22 -74 25 -18 25
-18 34 5 5 13 12 46 16 75 l7 51 34 -20 c59 -34 176 -36 256 -3 12 5 18 -1 23
-27 4 -18 14 -48 22 -66 15 -31 17 -32 34 -16 39 35 10 165 -50 225 -53 54
-153 74 -239 50 -17 -5 -32 -7 -32 -3 0 4 -12 8 -26 9 -23 1 -30 -8 -62 -75z"/>
<path d="M1770 1035 c-65 -20 -123 -74 -149 -137 -36 -87 -41 -95 -81 -117
-49 -28 -86 -72 -95 -113 -12 -56 -32 -84 -75 -103 -38 -17 -40 -21 -34 -49
23 -105 114 -233 212 -299 101 -69 175 -91 302 -91 163 -1 274 45 386 160 56
57 123 178 127 229 2 25 -4 32 -34 46 -46 23 -54 33 -81 109 -21 58 -29 68
-83 105 -49 34 -62 49 -77 89 -32 90 -82 142 -165 172 -48 17 -96 16 -153 -1z
m142 -142 c37 5 41 3 56 -25 10 -17 25 -39 35 -50 9 -10 17 -24 17 -30 0 -7 4
-19 9 -27 8 -12 12 -12 26 2 23 24 44 21 57 -8 10 -22 8 -30 -9 -53 -11 -15
-29 -28 -40 -30 -11 -2 -24 -16 -31 -35 -14 -37 -35 -63 -76 -95 -75 -58 -173
-45 -244 32 -23 25 -44 56 -47 69 -5 17 -16 27 -36 31 -34 7 -55 43 -45 80 7
29 36 35 56 11 18 -21 27 -19 39 13 10 24 45 78 71 109 6 7 23 10 45 6 33 -5
36 -3 47 28 l12 34 8 -34 c9 -32 11 -33 50 -28z m12 -425 c4 -18 17 -33 41
-45 l35 -19 -67 -107 c-38 -58 -71 -107 -74 -107 -7 0 -139 197 -139 208 0 5
16 16 35 25 24 12 37 26 41 44 5 27 8 28 64 28 56 1 59 -1 64 -27z"/>
<path d="M1746 829 c-39 -31 -31 -38 18 -15 25 11 42 24 40 28 -9 14 -30 9
-58 -13z"/>
<path d="M1905 840 c-3 -5 7 -13 22 -16 15 -4 39 -14 53 -22 20 -11 18 -8 -8
17 -33 31 -56 39 -67 21z"/>
<path d="M1762 773 c2 -10 10 -18 18 -18 22 0 18 29 -3 33 -14 3 -18 -1 -15
-15z"/>
<path d="M1922 773 c2 -10 10 -18 18 -18 22 0 18 29 -3 33 -14 3 -18 -1 -15
-15z"/>
<path d="M1870 757 c15 -43 12 -75 -7 -80 -14 -4 -12 -5 5 -6 19 -1 22 4 22
37 0 21 -7 47 -15 58 -14 18 -14 17 -5 -9z"/>
<path d="M1597 763 c-19 -18 10 -73 39 -73 16 0 14 43 -3 62 -17 19 -26 22
-36 11z"/>
<path d="M2060 750 c-16 -16 -19 -25 -11 -34 6 -7 8 -16 4 -19 -3 -4 0 -7 8
-7 22 0 39 21 39 46 0 33 -16 38 -40 14z"/>
<path d="M1886 624 c-23 -13 -34 -14 -55 -5 -24 11 -25 10 -7 -4 27 -20 49
-19 77 5 29 23 24 25 -15 4z"/>
<path d="M518 839 c-10 -5 -23 -20 -30 -32 -10 -19 -9 -20 3 -10 8 7 35 21 59
32 43 19 44 20 15 20 -16 0 -38 -4 -47 -10z"/>
<path d="M675 840 c3 -5 14 -10 24 -10 10 0 30 -9 45 -21 32 -25 35 -11 3 19
-23 22 -84 32 -72 12z"/>
<path d="M694 785 c-3 -8 -3 -19 0 -24 9 -13 36 -2 36 14 0 19 -30 27 -36 10z"/>
<path d="M538 783 c6 -2 10 -9 6 -14 -3 -5 7 -9 23 -9 27 1 27 1 9 15 -11 8
-27 15 -35 14 -11 0 -12 -2 -3 -6z"/>
<path d="M631 764 c0 -12 6 -27 14 -34 18 -15 19 -41 3 -60 -11 -12 -10 -12 5
-1 21 16 22 44 3 61 -8 6 -17 21 -19 33 -4 22 -4 22 -6 1z"/>
<path d="M360 754 c0 -26 20 -54 38 -54 20 0 27 37 10 57 -15 18 -48 16 -48
-3z"/>
<path d="M832 757 c-14 -16 -11 -57 3 -57 18 0 35 23 35 47 0 25 -21 31 -38
10z"/>
<path d="M665 634 c-19 -15 -39 -15 -80 1 l-20 8 20 -16 c28 -22 68 -21 90 3
21 24 18 25 -10 4z"/>
<path d="M680 529 c-14 -6 -49 -9 -78 -6 -30 2 -48 0 -40 -4 31 -17 108 -14
134 6 22 17 19 18 -16 4z"/>
<path d="M480 411 c-25 -11 -71 -29 -102 -41 -55 -21 -98 -65 -98 -99 0 -32
133 -110 230 -136 57 -15 210 -21 210 -7 0 4 18 8 39 8 42 2 168 59 210 94
l24 21 -21 45 c-19 37 -32 50 -78 71 -30 13 -62 22 -70 19 -8 -3 -13 -2 -10 2
2 4 -13 15 -35 24 l-39 16 -11 -41 c-6 -23 -19 -87 -28 -142 l-18 -100 -12 60
c-7 33 -14 67 -17 76 -2 8 5 25 16 36 19 21 19 21 -6 37 -18 13 -29 14 -44 6
-23 -13 -24 -14 -8 -39 9 -15 9 -35 -2 -90 -13 -68 -30 -96 -30 -48 0 35 -41
247 -49 247 -3 -1 -26 -9 -51 -19z"/>
</g>
</svg>
